<?xml version="1.0" encoding="utf-8"?>
<!-- Generator: Adobe Illustrator 24.0.2, SVG Export Plug-In . SVG Version: 6.00 Build 0)  -->
<svg version="1.1"
	 id="svg8" sodipodi:docname="community_logo_white.svg" xmlns:cc="http://creativecommons.org/ns#" xmlns:dc="http://purl.org/dc/elements/1.1/" xmlns:rdf="http://www.w3.org/1999/02/22-rdf-syntax-ns#" xmlns:sodipodi="http://sodipodi.sourceforge.net/DTD/sodipodi-0.dtd" xmlns:svg="http://www.w3.org/2000/svg"
	 xmlns="http://www.w3.org/2000/svg" xmlns:xlink="http://www.w3.org/1999/xlink" x="0px" y="0px" viewBox="0 0 170.521 138.519"
	 style="enable-background:new 0 0 170.521 138.519;" xml:space="preserve">
<style type="text/css">
	.st0{fill:#FFFFFF;}
	.st1{fill:#265787;}
	.st2{fill:#E87D0D;}
</style>
<namedview  bordercolor="#666666" borderlayer="true" borderopacity="1.0" fit-margin-bottom="1" fit-margin-left="1" fit-margin-right="1" fit-margin-top="1" id="base" pagecolor="#c8c8c8" showgrid="false" showguides="true">
	</namedview>
<path id="path1305" class="st0" d="M64.764,76.794c0.653-11.648,6.357-21.911,14.962-29.186
	c8.439-7.146,19.798-11.513,32.192-11.513c12.381,0,23.74,4.367,32.186,11.513c8.599,7.275,14.303,17.537,14.962,29.173
	c0.653,11.969-4.158,23.087-12.597,31.329c-8.605,8.384-20.845,13.644-34.551,13.644c-13.706,0-25.97-5.261-34.57-13.644
	C68.903,99.869,64.105,88.75,64.764,76.794z"/>
<path id="path1309" class="st1" d="M88.893,77.884c0.319-5.687,3.104-10.698,7.306-14.25c4.12-3.489,9.667-5.621,15.718-5.621
	c6.045,0,11.592,2.132,15.715,5.621c4.199,3.552,6.984,8.563,7.306,14.244c0.319,5.844-2.03,11.273-6.151,15.297
	c-4.202,4.093-10.178,6.662-16.87,6.662c-6.692,0-12.68-2.569-16.879-6.662C90.914,89.151,88.571,83.722,88.893,77.884z"/>
<path id="path1313" class="st2" d="M52.229,89.377c0.039,2.226,0.749,6.551,1.814,9.928c2.238,7.149,6.033,13.763,11.315,19.592
	c5.42,5.991,12.094,10.804,19.802,14.22c8.103,3.588,16.882,5.417,26.001,5.402c9.104-0.012,17.884-1.877,25.986-5.492
	c7.709-3.45,14.377-8.283,19.787-14.277c5.278-5.853,9.068-12.479,11.312-19.628c1.128-3.612,1.841-7.279,2.126-10.957
	c0.28-3.624,0.162-7.254-0.352-10.882c-1.005-7.068-3.45-13.7-7.215-19.745c-3.444-5.555-7.883-10.419-13.162-14.512l0.012-0.009
	L96.388,2.115C96.34,2.079,96.301,2.04,96.25,2.007c-3.495-2.683-9.372-2.674-13.216,0.015c-3.886,2.719-4.331,7.215-0.872,10.052
	l-0.015,0.015l22.218,18.067l-67.718,0.072c-0.033,0-0.066,0-0.09,0c-5.597,0.006-10.978,3.678-12.043,8.319
	c-1.095,4.728,2.707,8.65,8.527,8.671l-0.009,0.021l34.323-0.066L6.107,94.186c-0.078,0.057-0.162,0.117-0.235,0.174
	c-5.778,4.424-7.646,11.781-4.006,16.437c3.693,4.734,11.546,4.743,17.384,0.027l33.427-27.358
	C52.677,83.466,52.19,87.16,52.229,89.377z M138.125,101.744c-6.888,7.017-16.53,10.996-26.964,11.017
	c-10.449,0.018-20.091-3.925-26.979-10.93c-3.366-3.414-5.838-7.342-7.363-11.525c-1.495-4.111-2.075-8.476-1.69-12.879
	c0.364-4.304,1.645-8.409,3.69-12.124c2.009-3.651,4.776-6.951,8.193-9.742c6.695-5.456,15.219-8.409,24.134-8.421
	c8.924-0.012,17.441,2.914,24.143,8.352c3.411,2.779,6.175,6.066,8.184,9.712c2.054,3.711,3.326,7.802,3.705,12.118
	c0.379,4.397-0.201,8.755-1.696,12.87C143.954,94.387,141.491,98.315,138.125,101.744z"/>
</svg>
