<?xml version="1.0" encoding="utf-8"?>
<!-- Generator: Adobe Illustrator 24.0.2, SVG Export Plug-In . SVG Version: 6.00 Build 0)  -->
<svg version="1.1" id="iconmonstr" xmlns="http://www.w3.org/2000/svg" xmlns:xlink="http://www.w3.org/1999/xlink" x="0px" y="0px"
	 viewBox="0 0 24 24" style="enable-background:new 0 0 24 24;" xml:space="preserve">
<style type="text/css">
	.st0{fill:#FFFFFF;}
</style>
<path id="linkedin-1" class="st0" d="M4.98,3.5C4.98,4.881,3.87,6,2.5,6S0.02,4.881,0.02,3.5C0.02,2.12,1.13,1,2.5,1
	S4.98,2.12,4.98,3.5z M5,8H0v16h5V8z M12.982,8H8.014v16h4.969c0,0,0-5.935,0-8.398c0-4.67,6.029-5.053,6.029,0
	c0,2.304,0,8.398,0,8.398H24c0,0,0-5.845,0-10.131c0-7.88-8.923-7.593-11.018-3.714V8z"/>
</svg>
