<?xml version="1.0" encoding="utf-8"?>
<!-- Generator: Adobe Illustrator 24.0.2, SVG Export Plug-In . SVG Version: 6.00 Build 0)  -->
<svg version="1.1" id="Layer_1" xmlns="http://www.w3.org/2000/svg" xmlns:xlink="http://www.w3.org/1999/xlink" x="0px" y="0px"
	 viewBox="0 0 360 335.001" style="enable-background:new 0 0 360 335.001;" xml:space="preserve">
<style type="text/css">
	.st0{fill:#FBA919;}
	.st1{fill:#E78724;}
	.st2{fill:#FDC168;}
	.st3{fill:#FFFFFF;}
	.st4{fill:#C9C9C9;}
	.st5{fill:#463014;}
</style>
<path class="st0" d="M67.892,81.42c0,0,5.737,22.126,6.555,29.503c0.82,7.375-14.75,23.765-14.75,31.96
	c0,8.197,3.273,22.948,21.305,30.325c18.032,7.376,20.488,26.224,20.488,37.7c0,11.473-6.555,33.598-6.555,33.598
	s-4.096,54.908,18.03,64.742c22.124,9.833,17.21,9.833,22.124,9.833c4.91,0,40.97,14.76,62.28,9.02
	c21.31-5.73,27.04-12.29,27.04-12.29s21.31,1.64,27.86-17.21c6.56-18.84,10.65-58.18,8.19-76.21c-2.46-18.03-5.74-41.79,9.01-49.99
	c14.75-8.19,30.32-18.03,27.86-26.22c-2.46-8.19-15.57-19.67-15.57-19.67s-3.28-20.48-0.83-25.4c2.46-4.91,17.21-17.21,9.01-26.22
	c-8.19-9.01-22.95-9.01-22.95-9.01l-18.84,1.63c0,0-31.949-28.691-73.749-27.051c-41.77,1.64-68,27.04-68,27.04
	s-13.93-4.918-26.223,0c-12.3,4.92-14.75,0-12.29,13.93L67.892,81.42z"/>
<path class="st1" d="M142.775,203.437c0,0-16.23,24.815-28.133,42.425c-1.842,2.724,11.904,2.913,11.904,2.913l16.23-45.338H142.775
	z M150.502,151.99c0,0-4.892,12.204-7.572,18.674c-2.91,7.034-14,10.533-14,10.533s5.75-6.03,5.75-21.306
	c0-6.4,8.273-8.95,8.273-8.95l7.55,1.06L150.502,151.99z"/>
<path class="st1" d="M145.56,158.89c0,0-10.023,11.93-28.633,5.25c-18.614-6.68-20.522-30.546-20.522-37.228
	s35.317,6.682,40.09,9.546S150.332,150.775,145.56,158.89L145.56,158.89z M75.26,31.4c0,0,17.18-3.344,28.634,5.725
	c11.458,9.067,14.794,16.228,14.794,16.228L99.383,68.656c0,0-9.328-4.326-12.193-16.736C84.328,39.512,86.237,33.786,75.26,31.4z"
	/>
<path class="st1" d="M140.55,124.427c-7.398-10.5-19.588-15.08-29.32-15.84c-16.597-1.297-24.476,4.57-24.476,4.57
	s27.18,1.15,35.014,11.44c14.584,19.15,35.86,20.706,39.262,16.5c-3.934,0.196-8.262-1.753-12.894-6.133
	c-2.894-2.74-5.24-7.204-7.587-10.537L140.55,124.427z M94.666,161.554c0,0-30.156-10.367-24.426-20.864
	c5.727-10.502,1.17-16.223,1.17-16.223s-16.84,12.57-12.55,25.932c2.638,8.2,7.062,14.14,31.355,25.52
	c11.652,21.64,2.406,60.6,2.96,60.78c0.923,0.3,16.36-7.63,15.306-44.08c-0.32-11.2-1.21-26.47-13.81-31.08L94.666,161.554z
	 M134.184,50.074c-12.645,6.424-29.968,15.37-29.968,15.37l6.818,3.41c-0.65,1.055-0.965,1.684-0.965,1.684l6.99,3.182
	c0,0,17.08,12.375,27.55,20.33c-3.49-10.745-13.74-27.627-13.74-27.627s-2.91-7.757,3.3-16.35L134.184,50.074z M176.19,311.934
	c-38.865,0-52.03-19.73-52.03-19.73l6.074,14.79c2.296,6.4,26.788,26.31,45.898,26.31"/>
<path class="st1" d="M128.42,278.87c0,0,3.575,21.855,17.893,21.855c12.167,0,15.752-18.46,15.752-22.275L128.42,278.87
	L128.42,278.87z M104.592,245.912c1.272-3.502,5.726-17.66,7.157-30.545c1.71-15.432,1.09-38.003,1.09-38.003
	s-3.82,14.795-7.17,17.186c-3.34,2.385-9.55,18.61-9.55,18.61s-3.33,24.156-4.91,32.275c4.38,0.877,8.06-1.703,13.36,0.477
	L104.592,245.912z M70.016,150.162c0,0,8.11-2.866,10.5-20.522c2.385-17.66-2.866-32.932-2.866-32.932s0.477,24.34-2.385,29.114
	c-2.866,4.77-5.25,6.203-8.592,12.41C63.33,144.438,68.103,148.252,70.016,150.162z"/>
<path class="st2" d="M79.7,35.576l-1.655-1.05C73.162,34.692,79.701,35.576,79.7,35.576L79.7,35.576z"/>
<path class="st0" d="M140.786,44.846c0,0-7.634-1.272-11.454-6.998c-3.82-5.728-14.636-17.184-31.88-17.312
	c-17.24-0.13-34.3,4.583-34.3,4.583l14.89,9.4c1.576-0.05,4.33-0.03,8.884,0.12c18.688,0.62,21.565,19.1,21.565,19.1l65.87-9.07"/>
<path class="st3" d="M147.15,146.942c0,0-8.91,8.91-22.592,6.044c-13.683-2.862-21.957-8.908-22.593-19.41
	c-0.636-10.5,2.866-14.635,2.866-14.635s15.28,4.78,22.6,11.14c7.32,6.37,12.73,16.55,19.73,16.87L147.15,146.942z"/>
<path class="st4" d="M136.368,143.76c0,0-7.727,3.53-16.364,0.654c-11.306-3.77-12.06-15.53-12.06-15.53s-6.935,20.355,12.51,24.273
	c15.598,3.142,24.822-5.896,24.822-5.896l-8.908-3.5V143.76z"/>
<path class="st5" d="M141.86,40.528c-0.832-17.456,13.478-31.36,18.436-31.95c0.274,2.957-0.276,14.495,4.68,18.043
	C166.42,17.2,171.3,6.81,190.57,0c-4.127,10.946-0.55,20.115,1.152,24.365c13.16-11.944,22.025-9.97,22.025-9.97
	s-9.143,15.777-5.567,26.13C181.764,38.453,141.988,43.331,141.86,40.528L141.86,40.528z M85.857,67.118
	c-6.303-5.23-1.605-10.083-2.103-16.024c-0.27-3.16-0.52-6.144-1.563-7.79c-5.8-9.158-19.48-11.937-19.62-11.966l-6.42-1.258
	l4.25-4.973c0.55-0.644,18.01-17.3,45.03-8.58c18.9,6.096,32.89,26.764,33.41,27.6l-9.47,4.455
	c-0.11-0.176-11.17-19.603-27.38-24.83c-13.1-4.23-25.18-0.207-30.36,2.43c5.5,2.196,12.69,6.195,17.03,13.036
	c2.05,3.23,2.39,7.3,2.72,11.238c0.44,5.215,0.85,10.138,4.69,13.326l-10.2,3.335L85.857,67.118z M69.023,143.45
	c0,0,7.94-9.847,10.293-29.008c0.924-7.547-0.717-22.433-3.343-28.16c0.477,14.08-3.102,28.16-3.102,28.16s-2.41,26.144-3.84,29.008
	H69.023z"/>
<path class="st5" d="M110.896,57.172c-0.004-0.02-2.548-11.138-9.6-16.75c-9.95-7.914-22.098-3.704-22.215-3.667l-1.76-5.45
	c0.59-0.19,14.48-4.565,27.27,4.43c12.87,9.046,14.42,17.246,14.55,18.152l-8.24,3.285H110.896z M93.964,136.388
	c0,0-4.166-5.964-3.417-12.523c0.373-3.24,1.874-6.564,4.554-7.744c4.98-2.18,7.19,3.46,7.19,3.46s-7.01,1.73-8.32,16.81
	L93.964,136.388z"/>
<path class="st5" d="M139.707,145.478c0.174,0.325,0.263,0.507,0.263,0.507s-12.994,9.752-26.31-0.144
	c-7.13-5.3-6.456-18.41-4.272-23.97c5.68,1.29,10.496,3.61,14.522,6.32c-5.088-4.54-9.542-7.88-9.53-7.96l-5.783-1.64l-11.24-3.85
	c-0.144,0.86-4.244,20.08,7.59,33.17c5.245,5.81,29.835,18.81,41.51-3.42l-6.75,1.01V145.478z"/>
<path class="st5" d="M138.49,146.907c7.316,11.135,25.775,4.772,25.457-7c0,0-12.334,6.807-23.23-5.726
	c-6.363-7.31-26.75-27.49-54.395-20.78c19.092,4.2,44.367,21.64,52.168,33.52V146.907z"/>
<path class="st5" d="M83.74,178.333c1.76,1.017,7.966,7.445,7.97,17.06c0,4.82-0.48,29.04-2.866,43.835
	c3.59,2.332,6.09,2.828,9.663,5.205c1.79-17.136,3.072-41.972,2.474-51.998c-0.68-11.43-6.8-19.1-12.47-22.37
	c-1.77-1.022-3.63-2.027-5.5-3.038c-9.72-5.252-19.77-10.685-19.77-19.962c0-7.257,2.82-9.527,5.81-11.933l0.32-0.26
	c1.98-1.602,4.23-3.418,5.56-6.4c3.63-8.153,4.22-28.92,0-34.193c-2.1-2.63-7.74-11.47-6.12-17.4c0.62-2.27,2.05-3.95,4.37-5.14
	c2.46-1.26,5.78-1.9,9.87-1.9c8.03,0,16.94,2.44,21.53,3.9c16.42,5.2,36.23,20.2,41.91,24.68l0.28,0.21l3.63,2.53l-2.27-3.81
	c-0.14-0.24-14.53-23.91-40.27-32.59c-5.01-1.69-14.84-4.52-24.51-4.52c-5.75,0-10.64,1-14.51,2.98c-4.71,2.41-7.9,6.26-9.23,11.12
	c-3.25,11.92,7.34,25.19,7.7,25.62c1.24,2.2,1.76,18.2-1.09,24.61c-0.39,0.88-1.46,1.75-2.83,2.85c-0.42,0.34-0.9,0.7-1.41,1.08
	c-4.02,3.03-10.1,7.62-10.1,18.19c0,14.46,14.67,22.31,26.45,28.61c1.94,1.04,3.78,2.02,5.45,2.98L83.74,178.333z"/>
<path class="st5" d="M85.857,67.117c-6.303-5.23-1.605-10.082-2.103-16.023c-0.27-3.16-0.52-6.144-1.563-7.79
	c-5.8-9.158-19.48-11.937-19.62-11.966l-6.42-1.258l4.25-4.973c0.55-0.644,18.01-17.3,45.03-8.58
	c18.9,6.096,32.89,26.764,33.41,27.6l-9.47,4.455c-0.11-0.176-11.17-19.603-27.38-24.83c-13.1-4.23-25.18-0.207-30.36,2.43
	c5.5,2.196,12.69,6.195,17.03,13.036c2.05,3.23,2.39,7.3,2.72,11.238c0.44,5.215,0.85,10.138,4.69,13.326l-10.2,3.335H85.857z"/>
<path class="st5" d="M85.652,68.188l-0.407-0.337c-4.674-3.87-3.845-7.7-3.042-11.39c0.365-1.7,0.75-3.47,0.594-5.28
	c-0.255-3.04-0.5-5.91-1.416-7.36c-5.52-8.72-18.87-11.51-19-11.54l-8.02-1.58l5.32-6.21c0.1-0.11,11.31-11.43,30.29-11.43
	c5.18,0,10.48,0.86,15.75,2.57c19.72,6.36,33.8,27.79,33.93,28l0.57,0.91l-11.21,5.28l-0.45-0.71c-1.2-2.05-11.83-19.58-26.87-24.43
	c-3.69-1.2-7.58-1.8-11.56-1.8c-7.2,0-13.04,1.97-16.15,3.28c5.2,2.34,11.49,6.28,15.48,12.57c2.17,3.43,2.52,7.61,2.86,11.65
	c0.42,5.03,0.82,9.76,4.35,12.69l1.33,1.1l-12.34,4.05L85.652,68.188z"/>
<path class="st5" d="M110.896,57.172c-0.004-0.02-2.548-11.138-9.6-16.75c-9.95-7.914-22.098-3.704-22.215-3.667l-1.76-5.45
	c0.59-0.19,14.48-4.565,27.27,4.43c12.87,9.046,14.42,17.246,14.55,18.152l-8.24,3.285H110.896z"/>
<path class="st5" d="M110.212,58.472l-0.248-1.094c-0.026-0.107-2.52-10.844-9.266-16.207c-3.844-3.06-8.48-4.61-13.77-4.61
	c-4.13,0-7.2,0.99-7.535,1.1l-0.912,0.31l-2.36-7.27l0.91-0.29c0.41-0.13,4.09-1.28,9.31-1.28c6.88,0,13.38,2.02,18.81,5.84
	c13.2,9.28,14.81,17.85,14.95,18.8l0.12,0.75l-9.98,3.98L110.212,58.472z M86.928,34.65c5.652,0,10.83,1.738,14.96,5.024
	c5.99,4.77,8.807,13.19,9.66,16.21l6.49-2.587c-0.587-2.292-3.175-9.17-14-16.78c-5.178-3.64-11.135-5.484-17.71-5.484
	c-3.608,0-6.41,0.574-7.796,0.924l1.17,3.62C81.062,35.211,83.674,34.65,86.928,34.65z M145.715,295.482
	c-2.82,0-5.698-1.023-7.693-2.75c-1.527-1.316-6.69-6.06-8.968-11.87c-0.85-2.173-0.66-3.91,0.574-5.162
	c0.85-0.857,2.614-1.882,6.195-1.882l2.548-0.004c3.04-0.003,8.15-0.003,12.52-0.003h4.19c2.73,0,4.68,0.59,5.8,1.74
	c1.44,1.48,0.98,3.37,0.58,4.36c-0.7,1.74-3.6,7.4-8.52,12.65c-1.76,1.89-4.32,2.93-7.21,2.93L145.715,295.482z M148.67,147.562
	l-10.18-0.655c0,0,2.602,4.588,4.288,10.522c1.904,6.71-1.74,16.52-1.74,16.52s13.575-15.37,7.633-26.39L148.67,147.562z
	 M135.96,322.367c-36.238-2.785-48.988-37.028-48.988-44.16l9.464,0.004h-4.732h4.732c0.047,3.09,9.678,32.38,40.25,34.73
	l-0.725,9.44L135.96,322.367z"/>
<path class="st3" d="M125.777,261.016c-0.566-3.273-0.625-6.377,0.066-9.427c-2.754-2.07-7.696-2.84-11.404-4.05
	c-3.04-1.92-18.55,1.96-29.81-11.66c-14.11-17.06-11.14-27.25-11.14-27.25c-3.62,4.02-7.12,2.48-12.64,21.22s2.59,31.8,17.71,44.91
	c7.14,6.19,17.24,8.74,25.92,9.72c-2.91-2.92,4.97-3.22,10.4-5.25c-0.44-4.39,0.29-8.64,3.56-12.07c1.97-2.07,4.51-3.3,7.14-4.29
	c0.15-0.34,0.27-0.65,0.41-0.98c-0.09-0.3-0.17-0.6-0.23-0.92L125.777,261.016z"/>
<path class="st4" d="M114.82,279.15c-0.313-0.92-0.55-1.86-0.783-2.803c-0.25-1.03-1.5-3.952,0.04-0.617
	c-0.396-0.854-0.655-1.734-0.846-2.62c-24.48-0.032-45.78-16.84-41.66-52.18c-3.2-4.255-7.69,8.58-7.69,8.58
	s-12.25,35.588,19.4,49.38c10.55,4.6,19.87,7.898,22.07,6.567c4.58,0.93,8.72-2.263,10.27-4.363c-0.29-0.645-0.55-1.29-0.78-1.945
	L114.82,279.15z"/>
<path class="st5" d="M125.336,255.892c0.038-2.983,0.647-5.872,2.09-8.75c0.1-0.2,0.217-0.39,0.325-0.582
	c-9.42-0.08-20.27-0.983-29.51-4.68c-10.15-4.063-22.85-17.96-25.04-34.288c0,0-19.12,14.758-13.5,46.346
	c5.27,29.662,30.09,39.332,58.4,40.968c0.02-0.192-3.18-6.8-2.17-10.845c-16.07,1.17-34.05-5.04-42.72-19.32
	c-7.94-13.06-5.71-35.37-2.45-38.64c7.97,25.13,36.62,30.24,54.59,29.8L125.336,255.892z"/>
<path class="st5" d="M128.302,237.902c-5.094,14.95-15.5,27.047-15.5,27.047s14.314-0.66,15.104-3.19
	c0.585-1.87,12.924-30.75,17.66-64.59c-4.455,7.32-16.828,39.44-17.264,40.72V237.902z"/>
<path class="st1" d="M209.393,203.437c0,0,16.225,24.815,28.133,42.425c1.842,2.724-11.908,2.913-11.908,2.913L209.393,203.437
	L209.393,203.437z M201.663,151.99c0,0,4.894,12.204,7.57,18.674c2.91,7.034,14,10.533,14,10.533s-5.75-6.03-5.75-21.306
	c0-6.4-8.272-8.95-8.272-8.95l-7.54,1.06L201.663,151.99z"/>
<path class="st1" d="M206.605,158.89c0,0,10.023,11.93,28.638,5.25s20.522-30.546,20.522-37.228s-35.317,6.682-40.09,9.546
	C210.9,139.322,201.835,150.775,206.605,158.89L206.605,158.89z M276.905,31.4c0,0-17.18-3.344-28.636,5.725
	c-11.46,9.067-14.8,16.228-14.8,16.228l19.3,15.302c0,0,9.33-4.325,12.19-16.735c2.86-12.408,0.95-18.134,11.93-20.52L276.905,31.4z
	"/>
<path class="st1" d="M211.618,124.427c7.397-10.5,19.583-15.08,29.32-15.84c16.597-1.297,24.472,4.57,24.472,4.57
	s-27.18,1.15-35.015,11.44c-14.585,19.15-35.854,20.706-39.256,16.5c3.93,0.196,8.26-1.753,12.89-6.133
	c2.89-2.74,5.24-7.204,7.58-10.537L211.618,124.427z M257.5,161.554c0,0,30.154-10.367,24.427-20.865
	c-5.726-10.51-1.172-16.23-1.172-16.23s16.843,12.57,12.548,25.93c-2.637,8.2-7.06,14.14-31.354,25.52
	c-11.66,21.64-2.41,60.6-2.96,60.78c-0.93,0.3-16.36-7.63-15.31-44.08c0.32-11.19,1.21-26.47,13.81-31.08L257.5,161.554z
	 M217.984,50.074c12.64,6.424,29.967,15.37,29.967,15.37l-6.81,3.41c0.65,1.055,0.97,1.684,0.97,1.684l-6.99,3.182
	c0,0-17.08,12.375-27.55,20.33c3.49-10.745,13.73-27.627,13.73-27.627s2.91-7.757-3.3-16.35L217.984,50.074z M175.978,311.934
	c38.86,0,52.025-19.73,52.025-19.73l-6.07,14.79c-2.296,6.4-26.79,26.31-45.896,26.31"/>
<path class="st1" d="M223.748,278.87c0,0-3.58,21.855-17.894,21.855c-12.165,0-15.75-18.46-15.75-22.275L223.748,278.87
	L223.748,278.87z M247.575,245.912c-1.272-3.502-5.726-17.66-7.16-30.545c-1.716-15.432-1.087-38.003-1.087-38.003
	s3.82,14.795,7.156,17.186c3.344,2.385,9.546,18.61,9.546,18.61s3.324,24.156,4.906,32.275c-4.377,0.877-8.06-1.703-13.36,0.477
	L247.575,245.912z M282.155,150.162c0,0-8.116-2.866-10.5-20.522c-2.386-17.66,2.864-32.932,2.864-32.932s-0.48,24.34,2.38,29.114
	c2.86,4.773,5.25,6.203,8.59,12.41c3.34,6.205-1.44,10.02-3.34,11.93H282.155z"/>
<path class="st2" d="M272.465,35.576l1.66-1.05C279.008,34.692,272.465,35.576,272.465,35.576z"/>
<path class="st0" d="M211.378,44.846c0,0,7.638-1.272,11.454-6.998c3.82-5.728,14.64-17.184,31.883-17.312
	c17.242-0.13,34.3,4.583,34.3,4.583l-14.89,9.4c-1.576-0.05-4.33-0.03-8.888,0.12c-18.685,0.62-21.562,19.1-21.562,19.1l-65.86-9.07
	"/>
<path class="st3" d="M205.016,146.942c0,0,8.91,8.91,22.59,6.044c13.684-2.862,21.957-8.908,22.594-19.41
	c0.635-10.5-2.863-14.635-2.863-14.635s-15.275,4.78-22.593,11.14c-7.318,6.36-12.726,16.55-19.728,16.87L205.016,146.942z"/>
<path class="st4" d="M215.796,143.76c0,0,7.73,3.53,16.364,0.654c11.31-3.77,12.062-15.53,12.062-15.53s6.932,20.355-12.514,24.273
	c-15.594,3.142-24.82-5.896-24.82-5.896l8.908-3.5V143.76z"/>
<path class="st5" d="M266.31,67.117c6.302-5.23,1.608-10.082,2.106-16.023c0.266-3.16,0.516-6.144,1.56-7.79
	c5.8-9.158,19.482-11.937,19.623-11.966l6.42-1.258l-4.25-4.973c-0.55-0.644-18.01-17.3-45.03-8.58
	c-18.9,6.096-32.89,26.764-33.41,27.6l9.47,4.455c0.11-0.176,11.17-19.603,27.39-24.83c13.1-4.23,25.18-0.207,30.35,2.43
	c-5.5,2.196-12.69,6.195-17.03,13.036c-2.05,3.23-2.39,7.3-2.72,11.238c-0.44,5.215-0.86,10.138-4.7,13.326l10.19,3.335H266.31z
	 M283.14,143.45c0,0-7.937-9.847-10.29-29.008c-0.923-7.547,0.715-22.433,3.34-28.16c-0.477,14.08,3.105,28.16,3.105,28.16
	S281.709,140.586,283.14,143.45z"/>
<path class="st5" d="M241.27,57.172c0.005-0.02,2.55-11.138,9.603-16.75c9.948-7.914,22.097-3.704,22.21-3.667l1.77-5.45
	c-0.59-0.19-14.474-4.565-27.274,4.43c-12.88,9.046-14.42,17.246-14.56,18.152l8.24,3.285H241.27z M258.203,136.388
	c0,0,4.166-5.964,3.413-12.523c-0.37-3.24-1.87-6.564-4.55-7.744c-4.98-2.18-7.188,3.46-7.188,3.46s7.01,1.73,8.325,16.81V136.388z"
	/>
<path class="st5" d="M212.46,145.478c-0.173,0.325-0.263,0.507-0.263,0.507s12.99,9.752,26.307-0.144
	c7.133-5.3,6.46-18.41,4.27-23.97c-5.675,1.29-10.49,3.61-14.52,6.32c5.09-4.54,9.544-7.88,9.528-7.96l5.787-1.64l11.23-3.85
	c0.14,0.86,4.24,20.08-7.6,33.17c-5.25,5.81-29.84,18.81-41.51-3.42l6.75,1.01L212.46,145.478z"/>
<path class="st5" d="M213.674,146.907c-7.316,11.135-25.77,4.772-25.45-7c0,0,12.33,6.807,23.226-5.726
	c6.362-7.31,26.752-27.49,54.397-20.78c-19.09,4.2-44.368,21.64-52.173,33.52L213.674,146.907z"/>
<path class="st5" d="M268.43,178.333c-1.76,1.017-7.97,7.445-7.97,17.06c-0.004,4.82,0.477,29.04,2.866,43.835
	c-3.59,2.332-6.09,2.828-9.664,5.205c-1.79-17.136-3.076-41.972-2.474-51.998c0.683-11.43,6.8-19.1,12.474-22.37
	c1.777-1.022,3.635-2.027,5.51-3.038c9.72-5.252,19.77-10.685,19.77-19.962c0-7.257-2.824-9.527-5.81-11.933l-0.32-0.26
	c-1.98-1.602-4.228-3.418-5.553-6.4c-3.63-8.153-4.23-28.92-0.01-34.193c2.1-2.63,7.74-11.47,6.12-17.4
	c-0.62-2.27-2.05-3.95-4.37-5.14c-2.46-1.26-5.78-1.9-9.87-1.9c-8.03,0-16.94,2.44-21.53,3.9c-16.42,5.2-36.23,20.2-41.92,24.68
	c-0.16,0.12-0.26,0.2-0.28,0.21l-3.64,2.53l2.27-3.81c0.14-0.24,14.53-23.91,40.27-32.59c5.01-1.69,14.84-4.52,24.51-4.52
	c5.75,0,10.63,1,14.5,2.98c4.71,2.41,7.9,6.26,9.23,11.12c3.25,11.92-7.33,25.19-7.7,25.62c-1.24,2.2-1.76,18.2,1.09,24.61
	c0.39,0.88,1.47,1.75,2.83,2.85c0.43,0.34,0.9,0.7,1.41,1.08c4.02,3.03,10.1,7.62,10.1,18.19c0,14.46-14.66,22.31-26.44,28.61
	c-1.93,1.04-3.78,2.02-5.44,2.98L268.43,178.333z"/>
<path class="st5" d="M250.94,65.415c-2.332-3.95-8.296-11.577-22.042-18.28c-15.34-7.476-33.094-11.27-52.777-11.28v-0.004h-0.07
	v0.01c-19.68,0.01-37.44,3.81-52.78,11.28c-13.74,6.71-19.7,14.33-22.04,18.28l-1,1.33L112,69.37l0.378-0.47l0.197-0.434
	c0.18-0.78,1.76-4.98,14.884-11.38c14.03-6.842,30.39-10.31,48.63-10.32c18.24,0.008,34.6,3.477,48.63,10.32
	c13.12,6.4,14.71,10.6,14.89,11.378l0.19,0.433l0.37,0.47l11.77-2.62l-1-1.324L250.94,65.415z"/>
<path class="st5" d="M266.31,67.117c6.302-5.23,1.608-10.082,2.106-16.023c0.266-3.16,0.516-6.144,1.56-7.79
	c5.8-9.158,19.482-11.937,19.623-11.966l6.42-1.258l-4.25-4.973c-0.55-0.644-18.01-17.3-45.03-8.58
	c-18.9,6.096-32.89,26.764-33.41,27.6l9.47,4.455c0.11-0.176,11.17-19.603,27.39-24.83c13.1-4.23,25.18-0.207,30.35,2.43
	c-5.5,2.196-12.69,6.195-17.03,13.036c-2.05,3.23-2.39,7.3-2.72,11.238c-0.44,5.215-0.86,10.138-4.7,13.326l10.19,3.335H266.31z"/>
<path class="st5" d="M254.178,64.147l1.326-1.104c3.53-2.928,3.926-7.657,4.352-12.684c0.342-4.05,0.695-8.23,2.862-11.66
	c3.982-6.29,10.286-10.22,15.48-12.57c-3.11-1.32-8.952-3.28-16.156-3.28c-3.98,0-7.862,0.6-11.556,1.79
	c-15.04,4.85-25.666,22.37-26.87,24.43l-0.45,0.71l-11.21-5.27l0.57-0.91c0.133-0.21,14.2-21.64,33.925-28
	c5.28-1.71,10.58-2.57,15.76-2.57c18.99,0,30.2,11.32,30.29,11.43l5.32,6.22l-8.02,1.57c-0.13,0.02-13.48,2.82-19,11.54
	c-0.91,1.45-1.15,4.32-1.41,7.36c-0.15,1.81,0.23,3.57,0.6,5.28c0.8,3.69,1.63,7.52-3.04,11.39l-0.4,0.33l-12.34-4.05
	L254.178,64.147z"/>
<path class="st5" d="M241.27,57.172c0.005-0.02,2.55-11.138,9.603-16.75c9.948-7.914,22.097-3.704,22.21-3.667l1.77-5.45
	c-0.59-0.19-14.474-4.565-27.274,4.43c-12.88,9.046-14.42,17.246-14.56,18.152l8.24,3.285H241.27z"/>
<path class="st5" d="M231.975,54.495l0.11-0.748c0.14-0.946,1.753-9.52,14.946-18.794c5.43-3.814,11.94-5.832,18.81-5.832
	c5.22,0,8.9,1.15,9.31,1.28l0.91,0.3l-2.36,7.27l-0.91-0.3c-0.34-0.11-3.41-1.1-7.53-1.1c-5.29,0-9.92,1.56-13.76,4.62
	c-6.74,5.37-9.24,16.1-9.26,16.21l-0.24,1.1l-9.98-3.98L231.975,54.495z M272.465,35.575l1.175-3.618
	c-1.386-0.352-4.192-0.924-7.8-0.924c-6.574,0-12.533,1.846-17.71,5.484c-10.827,7.61-13.415,14.488-14.002,16.78l6.497,2.587
	c0.85-3.02,3.664-11.442,9.656-16.21c4.14-3.286,9.31-5.024,14.96-5.024c3.25,0,5.87,0.56,7.23,0.926L272.465,35.575z
	 M199.242,292.56c-4.917-5.258-7.826-10.915-8.53-12.653c-0.4-0.99-0.86-2.877,0.583-4.36c1.124-1.147,3.072-1.736,5.796-1.736h4.2
	c4.37,0,9.48,0,12.52,0.01l2.55,0.01c3.58,0,5.35,1.03,6.19,1.88c1.24,1.25,1.43,2.99,0.58,5.17c-2.28,5.81-7.44,10.56-8.97,11.87
	c-2,1.73-4.87,2.75-7.69,2.75c-2.89,0-5.45-1.04-7.21-2.92L199.242,292.56z M203.498,147.562l10.176-0.655
	c0,0-2.6,4.588-4.285,10.522c-1.91,6.71,1.74,16.52,1.74,16.52s-13.58-15.37-7.64-26.39L203.498,147.562z"/>
<path class="st1" d="M176.085,111.21c-6.49,0-14.95-0.177-21.298-4.74c0,0,8.312,14.572,21.287,14.572l0.01-1.844l0.012,1.844
	c12.976,0,21.287-14.57,21.287-14.57c-6.348,4.56-14.815,4.74-21.298,4.74L176.085,111.21z"/>
<path class="st5" d="M193.952,111.14c-6.51,3.94-12.322,5.305-17.867,5.426c-5.546-0.12-11.357-1.486-17.867-5.425
	c0,0,9.48,11.57,17.82,11.66v0.01h0.046c0.015,0,0.03,0.01,0.047,0.01c8.34-0.09,17.83-11.65,17.83-11.65L193.952,111.14z
	 M216.207,322.367l-0.726-9.435c30.57-2.35,40.2-31.643,40.25-34.726h9.47c0.01,7.13-12.75,41.376-48.98,44.16L216.207,322.367z"/>
<path class="st3" d="M226.39,261.016c0.568-3.273,0.623-6.377-0.067-9.427c2.758-2.07,7.696-2.84,11.404-4.05
	c3.032-1.92,18.552,1.96,29.81-11.66c14.103-17.06,11.13-27.25,11.13-27.25c3.62,4.02,7.122,2.48,12.638,21.22
	c5.52,18.74-2.595,31.8-17.712,44.91c-7.14,6.19-17.238,8.74-25.922,9.72c2.91-2.92-4.96-3.22-10.39-5.25
	c0.44-4.39-0.29-8.64-3.56-12.07c-1.96-2.07-4.5-3.3-7.13-4.29c-0.15-0.34-0.27-0.65-0.41-0.98c0.09-0.3,0.17-0.6,0.23-0.92
	L226.39,261.016z"/>
<path class="st4" d="M237.342,279.15c0.318-0.92,0.55-1.86,0.784-2.803c0.255-1.03,1.505-3.952-0.038-0.617
	c0.396-0.854,0.655-1.734,0.846-2.62c24.482-0.032,45.78-16.84,41.662-52.18c3.205-4.255,7.696,8.58,7.696,8.58
	s12.257,35.588-19.397,49.38c-10.547,4.6-19.867,7.898-22.067,6.567c-4.585,0.93-8.72-2.263-10.267-4.363
	c0.29-0.645,0.56-1.29,0.79-1.945L237.342,279.15z"/>
<path class="st5" d="M226.827,255.892c-0.034-2.983-0.647-5.872-2.085-8.75c-0.102-0.2-0.22-0.39-0.326-0.582
	c9.42-0.08,20.27-0.983,29.51-4.68c10.154-4.063,22.857-17.96,25.04-34.288c0,0,19.126,14.758,13.506,46.346
	c-5.28,29.662-30.097,39.332-58.404,40.968c-0.015-0.192,3.185-6.8,2.173-10.845c16.07,1.17,34.05-5.04,42.73-19.32
	c7.94-13.06,5.71-35.37,2.45-38.64c-7.96,25.13-36.62,30.24-54.59,29.8L226.827,255.892z"/>
<path class="st5" d="M238.258,263.332c-3.382-3.656-9.6-8.014-23.937-8.014l-38.18-0.023h-0.09c-11,0.008-38.19,0.023-38.19,0.023
	c-14.33,0-20.55,4.36-23.93,8.014c-4.93,5.32-5.7,12.723-2.29,21.975c9.06,24.626,21.8,49.645,64.42,49.68v0.004h0.05
	c0.02,0,0.03,0.01,0.05,0.01c42.62-0.03,55.36-25.05,64.42-49.68c3.41-9.25,2.64-16.65-2.29-21.97L238.258,263.332z M231.622,283.58
	c-4.317,12.366-15.92,42.298-55.54,42.35c-39.624-0.052-51.222-29.983-55.54-42.35c-2.388-6.86-2.206-11.938,0.56-15.092
	c1.89-2.156,6.23-4.73,16.12-4.73l10.333-0.003c7.623-0.007,17.194-0.015,28.53-0.02c11.33,0.005,20.906,0.013,28.527,0.02
	l10.33,0.004c9.893,0,14.232,2.57,16.122,4.72c2.763,3.15,2.947,8.23,0.558,15.09V283.58z"/>
<path class="st5" d="M223.863,237.902c5.094,14.95,15.498,27.047,15.498,27.047s-14.31-0.66-15.1-3.19
	c-0.58-1.87-12.92-30.75-17.65-64.59c4.46,7.32,16.83,39.44,17.27,40.72L223.863,237.902z"/>
</svg>
