<?xml version="1.0" encoding="utf-8"?>
<!-- Generator: Adobe Illustrator 24.0.2, SVG Export Plug-In . SVG Version: 6.00 Build 0)  -->
<svg version="1.1" id="Layer_1" xmlns="http://www.w3.org/2000/svg" xmlns:xlink="http://www.w3.org/1999/xlink" x="0px" y="0px"
	 viewBox="0 0 174.5 198.25" style="enable-background:new 0 0 174.5 198.25;" xml:space="preserve">
<style type="text/css">
	.st0{fill:#009639;}
	.st1{fill:#FFFFFF;}
</style>
<path class="st0" d="M1.4,148.725c0.9,1.6,2.2,2.8,3.8,3.7l77,44.4l0,0c3.2,1.9,7.1,1.9,10.2,0l77-44.4c3.2-1.8,5.1-5.2,5.1-8.9
	v-88.8l0,0c0-3.7-1.9-7.1-5.1-8.9l-77-44.4l0,0c-3.2-1.9-7.1-1.9-10.2,0l0,0l-77,44.4c-3.3,1.8-5.2,5.2-5.2,8.9l0,0v88.9
	C0,145.425,0.4,147.125,1.4,148.725"/>
<path class="st1" d="M62.6,133.025c0,5.5-4.4,9.9-9.9,9.9s-9.9-4.4-9.9-9.9l0,0v-67.9c0-5.3,4.7-9.6,11.2-9.6c4.7,0,10.2,1.9,13.5,6
	l3,3.6l41.4,49.5v-49.3l0,0c0-5.5,4.4-9.9,9.9-9.9s9.9,4.4,9.9,9.9l0,0v67.9c0,5.3-4.7,9.6-11.2,9.6c-4.7,0-10.2-1.9-13.5-6
	l-44.4-53V133.025L62.6,133.025z"/>
</svg>
