<?xml version="1.0" encoding="utf-8"?>
<!-- Generator: Adobe Illustrator 24.0.2, SVG Export Plug-In . SVG Version: 6.00 Build 0)  -->
<svg version="1.1" id="Layer_1" xmlns="http://www.w3.org/2000/svg" xmlns:xlink="http://www.w3.org/1999/xlink" x="0px" y="0px"
	 viewBox="0 0 450.56 448.5" style="enable-background:new 0 0 450.56 448.5;" xml:space="preserve">
<style type="text/css">
	.st0{fill:#10AA50;}
	.st1{fill:#B8C4C2;}
	.st2{fill:#12924F;}
</style>
<title>MongoDB_Leaf_FullColor_RGB</title>
<path class="st0" d="M319.8,179.68c-23-101.47-71-128.49-83.18-147.59C230,21.7,223.25,5.91,223.25,5.91
	c-0.66,9-1.83,14.7-9.51,21.54C198.36,41.16,133,94.42,127.51,209.72c-5.12,107.5,79,173.8,90.18,180.65c8.54,4.2,19,0.08,24-3.77
	c40.54-27.84,96-102.07,78.06-206.92"/>
<path class="st1" d="M226.73,333.11c-2.11,26.62-3.63,42.11-9,57.29c0,0,3.54,25.33,6,52.17h8.77
	c2.094-18.904,5.289-37.669,9.57-56.2C230.71,380.8,227.16,356.46,226.73,333.11z"/>
<path class="st2" d="M242.06,386.39L242.06,386.39c-11.48-5.3-14.8-30.13-15.31-53.28c2.828-38.167,3.646-76.457,2.45-114.71
	c-0.6-20.07,0.3-185.92-4.94-210.2c2.12,4.75,7.24,15.91,12.36,23.88c12.23,19.11,60.19,46.13,83.17,147.61
	C337.7,284.27,282.57,358.37,242.06,386.39z"/>
</svg>
