<?xml version="1.0" encoding="utf-8"?>
<svg id="Hysch" xmlns="http://www.w3.org/2000/svg" xmlns:xlink="http://www.w3.org/1999/xlink" width="1500" viewBox="0 0 519.444 948.857">
	<defs>
		<linearGradient id="linear-gradient" y1="0.5" x2="1" y2="0.5" gradientUnits="objectBoundingBox">
			<stop offset="0" stop-color="#ffe26f" />
			<stop offset="0.999" stop-color="#f88842" />
		</linearGradient>
		<linearGradient id="linear-gradient-2" x1="0.113" y1="-0.051" x2="0.853" y2="0.815" gradientUnits="objectBoundingBox">
			<stop offset="0" stop-color="#e64c85" />
			<stop offset="1" stop-color="#e1007f" />
		</linearGradient>
		<linearGradient id="linear-gradient-3" x1="0.935" y1="0.912" x2="0.154" y2="0.076" gradientUnits="objectBoundingBox">
			<stop offset="0" stop-color="#500027" />
			<stop offset="1" stop-color="#811256" />
		</linearGradient>
	</defs>
	<g id="Group_7" data-name="Group 7" transform="translate(49.739 60.077)">
		<g id="Layer_6" data-name="Layer 6" transform="translate(60.917)">
			<path id="Path_39" data-name="Path 39" d="M421.638,223.112V302.8H384.115V290.958a11.623,11.623,0,0,0,0-23.246v-44.6a110.172,110.172,0,0,0-220.343,0V352.041H126.25V223.112c0-81.441,66.257-147.689,147.689-147.689S421.638,141.672,421.638,223.112Z" transform="translate(-126.25 -75.423)" fill="url(#linear-gradient)" />
		</g>
		<g id="Layer_2" data-name="Layer 2" transform="translate(0 276.618)">
			<path id="Path_40" data-name="Path 40" d="M473.662,441.664V601.038A49.242,49.242,0,0,1,424.42,650.28H314.3L154.923,748.763l.366-98.483H105.681A49.242,49.242,0,0,1,56.44,601.038V441.664a49.242,49.242,0,0,1,49.241-49.241H424.42A49.242,49.242,0,0,1,473.662,441.664Z" transform="translate(-56.44 -392.423)" fill="url(#linear-gradient-2)" />
		</g>
		<g id="Layer_9" data-name="Layer 9" transform="translate(159.37 325.869)">
			<path id="Path_41" data-name="Path 41" d="M306.776,543.771v64.46H269.855V543.757a49.222,49.222,0,1,1,36.921.014Z" transform="translate(-239.076 -448.864)" fill="url(#linear-gradient-3)" />
			<circle id="Ellipse_21" data-name="Ellipse 21" cx="18.804" cy="18.804" r="18.804" transform="translate(30.439 29.873)" fill="#ffe26f" />
		</g>
		<g id="Layer_11" data-name="Layer 11" transform="translate(49.238 693.831)">
			<g id="Group_6" data-name="Group 6">
				<path id="Path_42" data-name="Path 42" d="M171.961,948.306a6.749,6.749,0,0,1-.559,2.728,6.906,6.906,0,0,1-1.545,2.235,7.088,7.088,0,0,1-2.268,1.479,7.265,7.265,0,0,1-2.793.526,7.126,7.126,0,0,1-5-2.005,6.893,6.893,0,0,1-1.545-2.235,6.734,6.734,0,0,1-.559-2.728V923.622a1.345,1.345,0,0,1,.065-.427,17.45,17.45,0,0,0-1.182-6.113,15.769,15.769,0,0,0-3.057-4.93,14.153,14.153,0,0,0-4.634-3.32,14.4,14.4,0,0,0-5.982-1.216,16.755,16.755,0,0,0-6.244,1.15,14.84,14.84,0,0,0-5,3.221,15.126,15.126,0,0,0-3.319,4.93,15.851,15.851,0,0,0-1.216,6.278v24.978a6.984,6.984,0,0,1-.559,2.761,7.077,7.077,0,0,1-1.511,2.268,7.18,7.18,0,0,1-2.235,1.511,6.9,6.9,0,0,1-2.794.559,7.03,7.03,0,0,1-6.606-4.338,6.969,6.969,0,0,1-.559-2.761v-70.4a7.188,7.188,0,0,1,2.1-5.127,7.213,7.213,0,0,1,2.3-1.545,6.984,6.984,0,0,1,7.79,1.545,7.506,7.506,0,0,1,1.511,2.3,7.15,7.15,0,0,1,.559,2.826V899.2a27.639,27.639,0,0,1,7.395-4.3,22.946,22.946,0,0,1,8.381-1.545,27.834,27.834,0,0,1,11.569,2.4,28.79,28.79,0,0,1,9.2,6.507,30.145,30.145,0,0,1,6.08,9.63,31.479,31.479,0,0,1,2.2,11.766Z" transform="translate(-112.866 -870.543)" fill="#ffe26f" />
				<path id="Path_43" data-name="Path 43" d="M208.259,929.27a15.8,15.8,0,0,0,1.25,6.278,15.473,15.473,0,0,0,8.545,8.414,16.412,16.412,0,0,0,6.31,1.216,15.473,15.473,0,0,0,6.278-1.282,15.805,15.805,0,0,0,5.062-3.484,16.6,16.6,0,0,0,3.385-5.16,16.224,16.224,0,0,0,1.25-6.376v-24.19a6.419,6.419,0,0,1,.592-2.728,7.793,7.793,0,0,1,1.577-2.268,7.108,7.108,0,0,1,2.334-1.545,7.216,7.216,0,0,1,2.793-.559,6.683,6.683,0,0,1,2.761.559,7.024,7.024,0,0,1,2.2,1.545,7.116,7.116,0,0,1,2.005,5v24.452a29.4,29.4,0,0,1-1.775,10.222,31.054,31.054,0,0,1-4.864,8.71,30.482,30.482,0,0,1-7.362,6.639,29.47,29.47,0,0,1-9.268,3.945v15.118a7.165,7.165,0,0,1-.559,2.826,6.845,6.845,0,0,1-1.545,2.269,7.643,7.643,0,0,1-2.268,1.511,6.764,6.764,0,0,1-2.728.558,6.967,6.967,0,0,1-7.165-7.165V958.587a29.8,29.8,0,0,1-9.2-4.01,30.974,30.974,0,0,1-7.3-6.639,30.519,30.519,0,0,1-4.831-8.677A29.407,29.407,0,0,1,194,929.138V904.686a6.751,6.751,0,0,1,.558-2.728,7.581,7.581,0,0,1,1.512-2.268,6.816,6.816,0,0,1,2.268-1.545,7.092,7.092,0,0,1,5.521,0,7.188,7.188,0,0,1,2.3,1.545,7.316,7.316,0,0,1,1.545,2.268,6.766,6.766,0,0,1,.558,2.728Z" transform="translate(-123.201 -873.988)" fill="#ffe26f" />
				<path id="Path_44" data-name="Path 44" d="M291.6,932.9q-2.827-1.183-5.85-2.629a26.561,26.561,0,0,1-5.522-3.517,17.482,17.482,0,0,1-4.108-4.93,13.774,13.774,0,0,1-1.611-6.869,16.761,16.761,0,0,1,6.212-13.311,20.779,20.779,0,0,1,6.935-3.682,28.81,28.81,0,0,1,8.808-1.282,40.076,40.076,0,0,1,5.719.427,28.967,28.967,0,0,1,5.62,1.381,18.6,18.6,0,0,1,4.766,2.5,10.62,10.62,0,0,1,3.221,3.713,7.264,7.264,0,0,1,.69,4.175A6.24,6.24,0,0,1,315,912.261a6.749,6.749,0,0,1-2.136,1.644,5.873,5.873,0,0,1-2.6.592,5.956,5.956,0,0,1-2.3-.526q-1.38-.853-2.531-1.511a16.784,16.784,0,0,0-2.367-1.118,13.854,13.854,0,0,0-2.564-.69,18.268,18.268,0,0,0-3.057-.23,14.385,14.385,0,0,0-6.475,1.15,3.74,3.74,0,0,0-2.2,3.517,2.807,2.807,0,0,0,.821,2.072,7.734,7.734,0,0,0,2.235,1.478,24.785,24.785,0,0,0,3.419,1.25q2,.592,4.371,1.314a63,63,0,0,1,7.4,2.761,25.636,25.636,0,0,1,6.179,3.846,17.461,17.461,0,0,1,4.24,5.325,15.817,15.817,0,0,1,1.577,7.329,16.7,16.7,0,0,1-1.676,7.4,18.7,18.7,0,0,1-4.634,6.014,22.15,22.15,0,0,1-7.033,4.043,26.04,26.04,0,0,1-8.94,1.479,39.5,39.5,0,0,1-6.409-.559,28.9,28.9,0,0,1-6.573-1.907,25.191,25.191,0,0,1-5.883-3.484,16.193,16.193,0,0,1-4.339-5.292,8.514,8.514,0,0,1-1.183-4.042,6.424,6.424,0,0,1,.822-3.287,5.711,5.711,0,0,1,2.3-2.2,6.8,6.8,0,0,1,3.254-.789,8.757,8.757,0,0,1,3.287.69,12.055,12.055,0,0,1,3.418,2.2,10.825,10.825,0,0,0,1.972,1.873,15.426,15.426,0,0,0,9.268,3.057,12.678,12.678,0,0,0,3.09-.362,9.589,9.589,0,0,0,2.563-1.018,5.659,5.659,0,0,0,1.776-1.578,3.536,3.536,0,0,0,.657-2.1,3.254,3.254,0,0,0-1.446-2.531,18.329,18.329,0,0,0-3.517-2.136,38.228,38.228,0,0,0-4.339-1.742Z" transform="translate(-133.181 -873.873)" fill="#ffe26f" />
				<path id="Path_45" data-name="Path 45" d="M348.3,928.037a15.539,15.539,0,0,0,1.282,6.114,18.779,18.779,0,0,0,3.484,5.423,18.12,18.12,0,0,0,5.16,3.911,14.407,14.407,0,0,0,6.376,1.578,20.292,20.292,0,0,0,6.278-.887,16.807,16.807,0,0,0,5.489-3.188,21.075,21.075,0,0,1,2.925-2.072,6.788,6.788,0,0,1,3.517-.953,6.452,6.452,0,0,1,2.367.493,9.321,9.321,0,0,1,2.564,1.611,6.312,6.312,0,0,1,1.676,2.333,6.914,6.914,0,0,1,.525,2.826,7.756,7.756,0,0,1-.657,2.925,9.488,9.488,0,0,1-1.874,2.761,27.121,27.121,0,0,1-9.7,6.311,32.49,32.49,0,0,1-11.8,2.169,32.134,32.134,0,0,1-22.481-9.005,30.967,30.967,0,0,1-6.836-9.893,30.118,30.118,0,0,1-2.5-12.26.189.189,0,0,0,.065-.131h-.065a30.58,30.58,0,0,1,2.5-12.325,31.149,31.149,0,0,1,6.836-9.992,32.156,32.156,0,0,1,10.123-6.671,31.552,31.552,0,0,1,12.358-2.433,33.861,33.861,0,0,1,11.8,2.071,26.049,26.049,0,0,1,9.7,6.212,9.064,9.064,0,0,1,1.907,2.728,7.691,7.691,0,0,1,.69,2.958,6.61,6.61,0,0,1-.558,2.826,6.912,6.912,0,0,1-1.776,2.4,8.973,8.973,0,0,1-2.5,1.578,6.317,6.317,0,0,1-2.3.459,6.774,6.774,0,0,1-3.518-.953,24.571,24.571,0,0,1-2.99-2.071,19.523,19.523,0,0,0-5.456-3.024,17.4,17.4,0,0,0-5.654-.92,15.617,15.617,0,0,0-6.442,1.38,17.235,17.235,0,0,0-5.39,3.747,18.655,18.655,0,0,0-3.681,5.456,15.619,15.619,0,0,0-1.38,6.442Z" transform="translate(-141.049 -873.873)" fill="#ffe26f" />
				<path id="Path_46" data-name="Path 46" d="M469.509,948.306a6.763,6.763,0,0,1-.558,2.728,6.922,6.922,0,0,1-1.545,2.235,7.094,7.094,0,0,1-2.267,1.479,7.273,7.273,0,0,1-2.794.526,7.126,7.126,0,0,1-5-2.005,6.905,6.905,0,0,1-1.545-2.235,6.748,6.748,0,0,1-.559-2.728V923.622a1.321,1.321,0,0,1,.066-.427,17.47,17.47,0,0,0-1.183-6.113,15.753,15.753,0,0,0-3.057-4.93,14.154,14.154,0,0,0-4.634-3.32,14.4,14.4,0,0,0-5.982-1.216,16.755,16.755,0,0,0-6.244,1.15,14.849,14.849,0,0,0-5,3.221,15.126,15.126,0,0,0-3.319,4.93,15.866,15.866,0,0,0-1.216,6.278v24.978a7,7,0,0,1-.558,2.761,7.094,7.094,0,0,1-1.512,2.268,7.179,7.179,0,0,1-2.235,1.511,6.9,6.9,0,0,1-2.794.559,7.132,7.132,0,0,1-2.826-.559,6.95,6.95,0,0,1-3.779-3.779,6.984,6.984,0,0,1-.559-2.761v-70.4a7.182,7.182,0,0,1,4.4-6.672,6.983,6.983,0,0,1,7.789,1.545,7.524,7.524,0,0,1,1.512,2.3,7.165,7.165,0,0,1,.558,2.826V899.2a27.658,27.658,0,0,1,7.4-4.3,22.938,22.938,0,0,1,8.381-1.545,27.831,27.831,0,0,1,11.569,2.4,28.8,28.8,0,0,1,9.2,6.507,30.158,30.158,0,0,1,6.079,9.63,31.461,31.461,0,0,1,2.2,11.766Z" transform="translate(-150.77 -870.543)" fill="#ffe26f" />
			</g>
		</g>
	</g>
	<g id="Group_3" data-name="Group 3" transform="translate(0 0)">
		<g id="Layer_6-2" data-name="Layer 6" transform="translate(110.167 60.366)">
			<path id="Path_22" data-name="Path 22" d="M421.638,223.112V302.8H384.115V290.958a11.623,11.623,0,0,0,0-23.246v-44.6a110.172,110.172,0,0,0-220.343,0V352.041H126.25V223.112c0-81.441,66.257-147.689,147.689-147.689S421.638,141.672,421.638,223.112Z" transform="translate(-126.25 -75.423)" fill="url(#linear-gradient)" />
		</g>
		<g id="Layer_2-2" data-name="Layer 2" transform="translate(49.25 336.984)">
			<path id="Path_23" data-name="Path 23" d="M473.662,441.664V601.038A49.242,49.242,0,0,1,424.42,650.28H314.3L154.923,748.763l.366-98.483H105.681A49.242,49.242,0,0,1,56.44,601.038V441.664a49.242,49.242,0,0,1,49.241-49.241H424.42A49.242,49.242,0,0,1,473.662,441.664Z" transform="translate(-56.44 -392.423)" fill="url(#linear-gradient-2)" />
		</g>
		<g id="Layer_9-2" data-name="Layer 9" transform="translate(208.62 386.235)">
			<path id="Path_24" data-name="Path 24" d="M306.776,543.771v64.46H269.855V543.757a49.222,49.222,0,1,1,36.921.014Z" transform="translate(-239.076 -448.864)" fill="url(#linear-gradient-3)" />
			<circle id="Ellipse_11" data-name="Ellipse 11" cx="18.804" cy="18.804" r="18.804" transform="translate(30.439 29.873)" fill="#ffe26f" />
		</g>
		<g id="Layer_11-2" data-name="Layer 11" transform="translate(98.488 754.197)">
			<g id="Group_5" data-name="Group 5">
				<path id="Path_25" data-name="Path 25" d="M171.961,948.306a6.749,6.749,0,0,1-.559,2.728,6.906,6.906,0,0,1-1.545,2.235,7.088,7.088,0,0,1-2.268,1.479,7.265,7.265,0,0,1-2.793.526,7.126,7.126,0,0,1-5-2.005,6.893,6.893,0,0,1-1.545-2.235,6.734,6.734,0,0,1-.559-2.728V923.622a1.345,1.345,0,0,1,.065-.427,17.45,17.45,0,0,0-1.182-6.113,15.769,15.769,0,0,0-3.057-4.93,14.153,14.153,0,0,0-4.634-3.32,14.4,14.4,0,0,0-5.982-1.216,16.755,16.755,0,0,0-6.244,1.15,14.84,14.84,0,0,0-5,3.221,15.126,15.126,0,0,0-3.319,4.93,15.851,15.851,0,0,0-1.216,6.278v24.978a6.984,6.984,0,0,1-.559,2.761,7.077,7.077,0,0,1-1.511,2.268,7.18,7.18,0,0,1-2.235,1.511,6.9,6.9,0,0,1-2.794.559,7.03,7.03,0,0,1-6.606-4.338,6.969,6.969,0,0,1-.559-2.761v-70.4a7.188,7.188,0,0,1,2.1-5.127,7.213,7.213,0,0,1,2.3-1.545,6.984,6.984,0,0,1,7.79,1.545,7.506,7.506,0,0,1,1.511,2.3,7.15,7.15,0,0,1,.559,2.826V899.2a27.639,27.639,0,0,1,7.395-4.3,22.946,22.946,0,0,1,8.381-1.545,27.834,27.834,0,0,1,11.569,2.4,28.79,28.79,0,0,1,9.2,6.507,30.145,30.145,0,0,1,6.08,9.63,31.479,31.479,0,0,1,2.2,11.766Z" transform="translate(-112.866 -870.543)" fill="#ffe26f" />
				<path id="Path_26" data-name="Path 26" d="M208.259,929.27a15.8,15.8,0,0,0,1.25,6.278,15.473,15.473,0,0,0,8.545,8.414,16.412,16.412,0,0,0,6.31,1.216,15.473,15.473,0,0,0,6.278-1.282,15.805,15.805,0,0,0,5.062-3.484,16.6,16.6,0,0,0,3.385-5.16,16.224,16.224,0,0,0,1.25-6.376v-24.19a6.419,6.419,0,0,1,.592-2.728,7.793,7.793,0,0,1,1.577-2.268,7.108,7.108,0,0,1,2.334-1.545,7.216,7.216,0,0,1,2.793-.559,6.683,6.683,0,0,1,2.761.559,7.024,7.024,0,0,1,2.2,1.545,7.116,7.116,0,0,1,2.005,5v24.452a29.4,29.4,0,0,1-1.775,10.222,31.054,31.054,0,0,1-4.864,8.71,30.482,30.482,0,0,1-7.362,6.639,29.47,29.47,0,0,1-9.268,3.945v15.118a7.165,7.165,0,0,1-.559,2.826,6.845,6.845,0,0,1-1.545,2.269,7.643,7.643,0,0,1-2.268,1.511,6.764,6.764,0,0,1-2.728.558,6.967,6.967,0,0,1-7.165-7.165V958.587a29.8,29.8,0,0,1-9.2-4.01,30.974,30.974,0,0,1-7.3-6.639,30.519,30.519,0,0,1-4.831-8.677A29.407,29.407,0,0,1,194,929.138V904.686a6.751,6.751,0,0,1,.558-2.728,7.581,7.581,0,0,1,1.512-2.268,6.816,6.816,0,0,1,2.268-1.545,7.092,7.092,0,0,1,5.521,0,7.188,7.188,0,0,1,2.3,1.545,7.316,7.316,0,0,1,1.545,2.268,6.766,6.766,0,0,1,.558,2.728Z" transform="translate(-123.201 -873.988)" fill="#ffe26f" />
				<path id="Path_27" data-name="Path 27" d="M291.6,932.9q-2.827-1.183-5.85-2.629a26.561,26.561,0,0,1-5.522-3.517,17.482,17.482,0,0,1-4.108-4.93,13.774,13.774,0,0,1-1.611-6.869,16.761,16.761,0,0,1,6.212-13.311,20.779,20.779,0,0,1,6.935-3.682,28.81,28.81,0,0,1,8.808-1.282,40.076,40.076,0,0,1,5.719.427,28.967,28.967,0,0,1,5.62,1.381,18.6,18.6,0,0,1,4.766,2.5,10.62,10.62,0,0,1,3.221,3.713,7.264,7.264,0,0,1,.69,4.175A6.24,6.24,0,0,1,315,912.261a6.749,6.749,0,0,1-2.136,1.644,5.873,5.873,0,0,1-2.6.592,5.956,5.956,0,0,1-2.3-.526q-1.38-.853-2.531-1.511a16.784,16.784,0,0,0-2.367-1.118,13.854,13.854,0,0,0-2.564-.69,18.268,18.268,0,0,0-3.057-.23,14.385,14.385,0,0,0-6.475,1.15,3.74,3.74,0,0,0-2.2,3.517,2.807,2.807,0,0,0,.821,2.072,7.734,7.734,0,0,0,2.235,1.478,24.785,24.785,0,0,0,3.419,1.25q2,.592,4.371,1.314a63,63,0,0,1,7.4,2.761,25.636,25.636,0,0,1,6.179,3.846,17.461,17.461,0,0,1,4.24,5.325,15.817,15.817,0,0,1,1.577,7.329,16.7,16.7,0,0,1-1.676,7.4,18.7,18.7,0,0,1-4.634,6.014,22.15,22.15,0,0,1-7.033,4.043,26.04,26.04,0,0,1-8.94,1.479,39.5,39.5,0,0,1-6.409-.559,28.9,28.9,0,0,1-6.573-1.907,25.191,25.191,0,0,1-5.883-3.484,16.193,16.193,0,0,1-4.339-5.292,8.514,8.514,0,0,1-1.183-4.042,6.424,6.424,0,0,1,.822-3.287,5.711,5.711,0,0,1,2.3-2.2,6.8,6.8,0,0,1,3.254-.789,8.757,8.757,0,0,1,3.287.69,12.055,12.055,0,0,1,3.418,2.2,10.825,10.825,0,0,0,1.972,1.873,15.426,15.426,0,0,0,9.268,3.057,12.678,12.678,0,0,0,3.09-.362,9.589,9.589,0,0,0,2.563-1.018,5.659,5.659,0,0,0,1.776-1.578,3.536,3.536,0,0,0,.657-2.1,3.254,3.254,0,0,0-1.446-2.531,18.329,18.329,0,0,0-3.517-2.136,38.228,38.228,0,0,0-4.339-1.742Z" transform="translate(-133.181 -873.873)" fill="#ffe26f" />
				<path id="Path_28" data-name="Path 28" d="M348.3,928.037a15.539,15.539,0,0,0,1.282,6.114,18.779,18.779,0,0,0,3.484,5.423,18.12,18.12,0,0,0,5.16,3.911,14.407,14.407,0,0,0,6.376,1.578,20.292,20.292,0,0,0,6.278-.887,16.807,16.807,0,0,0,5.489-3.188,21.075,21.075,0,0,1,2.925-2.072,6.788,6.788,0,0,1,3.517-.953,6.452,6.452,0,0,1,2.367.493,9.321,9.321,0,0,1,2.564,1.611,6.312,6.312,0,0,1,1.676,2.333,6.914,6.914,0,0,1,.525,2.826,7.756,7.756,0,0,1-.657,2.925,9.488,9.488,0,0,1-1.874,2.761,27.121,27.121,0,0,1-9.7,6.311,32.49,32.49,0,0,1-11.8,2.169,32.134,32.134,0,0,1-22.481-9.005,30.967,30.967,0,0,1-6.836-9.893,30.118,30.118,0,0,1-2.5-12.26.189.189,0,0,0,.065-.131h-.065a30.58,30.58,0,0,1,2.5-12.325,31.149,31.149,0,0,1,6.836-9.992,32.156,32.156,0,0,1,10.123-6.671,31.552,31.552,0,0,1,12.358-2.433,33.861,33.861,0,0,1,11.8,2.071,26.049,26.049,0,0,1,9.7,6.212,9.064,9.064,0,0,1,1.907,2.728,7.691,7.691,0,0,1,.69,2.958,6.61,6.61,0,0,1-.558,2.826,6.912,6.912,0,0,1-1.776,2.4,8.973,8.973,0,0,1-2.5,1.578,6.317,6.317,0,0,1-2.3.459,6.774,6.774,0,0,1-3.518-.953,24.571,24.571,0,0,1-2.99-2.071,19.523,19.523,0,0,0-5.456-3.024,17.4,17.4,0,0,0-5.654-.92,15.617,15.617,0,0,0-6.442,1.38,17.235,17.235,0,0,0-5.39,3.747,18.655,18.655,0,0,0-3.681,5.456,15.619,15.619,0,0,0-1.38,6.442Z" transform="translate(-141.049 -873.873)" fill="#ffe26f" />
				<path id="Path_29" data-name="Path 29" d="M469.509,948.306a6.763,6.763,0,0,1-.558,2.728,6.922,6.922,0,0,1-1.545,2.235,7.094,7.094,0,0,1-2.267,1.479,7.273,7.273,0,0,1-2.794.526,7.126,7.126,0,0,1-5-2.005,6.905,6.905,0,0,1-1.545-2.235,6.748,6.748,0,0,1-.559-2.728V923.622a1.321,1.321,0,0,1,.066-.427,17.47,17.47,0,0,0-1.183-6.113,15.753,15.753,0,0,0-3.057-4.93,14.154,14.154,0,0,0-4.634-3.32,14.4,14.4,0,0,0-5.982-1.216,16.755,16.755,0,0,0-6.244,1.15,14.849,14.849,0,0,0-5,3.221,15.126,15.126,0,0,0-3.319,4.93,15.866,15.866,0,0,0-1.216,6.278v24.978a7,7,0,0,1-.558,2.761,7.094,7.094,0,0,1-1.512,2.268,7.179,7.179,0,0,1-2.235,1.511,6.9,6.9,0,0,1-2.794.559,7.132,7.132,0,0,1-2.826-.559,6.95,6.95,0,0,1-3.779-3.779,6.984,6.984,0,0,1-.559-2.761v-70.4a7.182,7.182,0,0,1,4.4-6.672,6.983,6.983,0,0,1,7.789,1.545,7.524,7.524,0,0,1,1.512,2.3,7.165,7.165,0,0,1,.558,2.826V899.2a27.658,27.658,0,0,1,7.4-4.3,22.938,22.938,0,0,1,8.381-1.545,27.831,27.831,0,0,1,11.569,2.4,28.8,28.8,0,0,1,9.2,6.507,30.158,30.158,0,0,1,6.079,9.63,31.461,31.461,0,0,1,2.2,11.766Z" transform="translate(-150.77 -870.543)" fill="#ffe26f" />
			</g>
		</g>
		<g id="Layer_1_copy" data-name="Layer 1 copy" transform="translate(0 0)">
			<rect id="Rectangle_16" data-name="Rectangle 16" width="98.483" height="98.483" transform="translate(147.734 336.984) rotate(180)" fill="none" stroke="#fff" stroke-miterlimit="10" stroke-width="1" />
			<rect id="Rectangle_17" data-name="Rectangle 17" width="98.483" height="98.483" transform="translate(147.734 693.326) rotate(180)" fill="none" stroke="#fff" stroke-miterlimit="10" stroke-width="1" />
			<rect id="Rectangle_18" data-name="Rectangle 18" width="98.483" height="98.483" transform="translate(147.734 594.844) rotate(180)" fill="none" stroke="#fff" stroke-miterlimit="10" stroke-width="1" />
			<circle id="Ellipse_12" data-name="Ellipse 12" cx="49.241" cy="49.241" r="49.241" transform="translate(49.251 336.984)" fill="none" stroke="#fff" stroke-miterlimit="10" stroke-width="1" />
			<circle id="Ellipse_13" data-name="Ellipse 13" cx="49.241" cy="49.241" r="49.241" transform="translate(49.251 496.361)" fill="none" stroke="#fff" stroke-miterlimit="10" stroke-width="1" />
			<circle id="Ellipse_14" data-name="Ellipse 14" cx="49.241" cy="49.241" r="49.241" transform="translate(367.986 336.984)" fill="none" stroke="#fff" stroke-miterlimit="10" stroke-width="1" />
			<circle id="Ellipse_15" data-name="Ellipse 15" cx="49.241" cy="49.241" r="49.241" transform="translate(367.986 496.361)" fill="none" stroke="#fff" stroke-miterlimit="10" stroke-width="1" />
			<circle id="Ellipse_16" data-name="Ellipse 16" cx="128.93" cy="128.93" r="128.93" transform="translate(128.932 207.944)" fill="none" stroke="#fff" stroke-miterlimit="10" stroke-width="1" />
			<circle id="Ellipse_17" data-name="Ellipse 17" cx="128.93" cy="128.93" r="128.93" transform="translate(128.931 79.124)" fill="none" stroke="#fff" stroke-miterlimit="10" stroke-width="1" />
			<rect id="Rectangle_19" data-name="Rectangle 19" width="60.862" height="60.862" transform="translate(344.69 336.874) rotate(-90)" fill="none" stroke="#fff" stroke-miterlimit="10" stroke-width="1" />
			<circle id="Ellipse_18" data-name="Ellipse 18" cx="18.806" cy="18.806" r="18.806" transform="translate(239.053 189.247)" fill="none" stroke="#fff" stroke-miterlimit="10" stroke-width="1" />
			<circle id="Ellipse_19" data-name="Ellipse 19" cx="11.622" cy="11.622" r="11.622" transform="translate(356.363 252.657)" fill="none" stroke="#fff" stroke-miterlimit="10" stroke-width="1" />
			<circle id="Ellipse_20" data-name="Ellipse 20" cx="79.679" cy="79.679" r="79.679" transform="translate(178.181 386.235)" fill="none" stroke="#fff" stroke-miterlimit="10" stroke-width="1" />
			<rect id="Rectangle_20" data-name="Rectangle 20" width="159.357" height="159.357" transform="translate(466.468 336.984) rotate(90)" fill="none" stroke="#fff" stroke-miterlimit="10" stroke-width="1" />
			<path id="Path_30" data-name="Path 30" d="M351.945,392.423A159.357,159.357,0,0,1,511.3,551.78" transform="translate(-44.834 -55.439)" fill="none" stroke="#fff" stroke-miterlimit="10" stroke-width="1" />
			<rect id="Rectangle_21" data-name="Rectangle 21" width="98.483" height="98.483" transform="translate(466.468 594.844) rotate(180)" fill="none" stroke="#fff" stroke-miterlimit="10" stroke-width="1" />
			<path id="Path_31" data-name="Path 31" d="M520.189,575.066a98.483,98.483,0,0,1-98.483,98.483" transform="translate(-53.721 -78.705)" fill="none" stroke="#fff" stroke-miterlimit="10" stroke-width="1" />
			<rect id="Rectangle_22" data-name="Rectangle 22" width="257.86" height="257.86" transform="translate(49.251 336.984)" fill="none" stroke="#fff" stroke-miterlimit="10" stroke-width="1" />
			<path id="Path_32" data-name="Path 32" d="M56.441,650.282c0-142.412,115.448-257.859,257.86-257.859" transform="translate(-7.19 -55.439)" fill="none" stroke="#fff" stroke-miterlimit="10" stroke-width="1" />
			<rect id="Rectangle_23" data-name="Rectangle 23" width="60.862" height="60.862" transform="translate(307.111 594.844) rotate(-90)" fill="none" stroke="#fff" stroke-miterlimit="10" stroke-width="1" />
			<path id="Path_33" data-name="Path 33" d="M412.807,679.041a60.862,60.862,0,0,1-60.862-60.862" transform="translate(-44.834 -84.197)" fill="none" stroke="#fff" stroke-miterlimit="10" stroke-width="1" />
			<rect id="Rectangle_24" data-name="Rectangle 24" width="37.613" height="37.613" transform="translate(307.111 496.341)" fill="none" stroke="#fff" stroke-miterlimit="10" stroke-width="1" />
			<path id="Path_34" data-name="Path 34" d="M351.945,612.657a37.613,37.613,0,0,1,37.613-37.613" transform="translate(-44.834 -78.702)" fill="none" stroke="#fff" stroke-miterlimit="10" stroke-width="1" />
			<rect id="Rectangle_25" data-name="Rectangle 25" width="23.245" height="23.245" transform="translate(367.969 496.341) rotate(90)" fill="none" stroke="#fff" stroke-miterlimit="10" stroke-width="1" />
			<path id="Path_35" data-name="Path 35" d="M395.049,575.044a23.245,23.245,0,0,1,23.245,23.245" transform="translate(-50.325 -78.702)" fill="none" stroke="#fff" stroke-miterlimit="10" stroke-width="1" />
			<rect id="Rectangle_26" data-name="Rectangle 26" width="14.365" height="14.365" transform="translate(367.969 533.951) rotate(180)" fill="none" stroke="#fff" stroke-miterlimit="10" stroke-width="1" />
			<path id="Path_36" data-name="Path 36" d="M419.59,601.682a14.365,14.365,0,0,1-14.366,14.365" transform="translate(-51.621 -82.096)" fill="none" stroke="#fff" stroke-miterlimit="10" stroke-width="1" />
			<rect id="Rectangle_27" data-name="Rectangle 27" width="8.878" height="8.878" transform="translate(344.724 533.951) rotate(-90)" fill="none" stroke="#fff" stroke-miterlimit="10" stroke-width="1" />
			<path id="Path_37" data-name="Path 37" d="M403.926,616.848a8.877,8.877,0,0,1-8.877-8.877" transform="translate(-50.325 -82.897)" fill="none" stroke="#fff" stroke-miterlimit="10" stroke-width="1" />
			<rect id="Rectangle_28" data-name="Rectangle 28" width="5.486" height="5.486" transform="translate(344.724 519.586)" fill="none" stroke="#fff" stroke-miterlimit="10" stroke-width="1" />
			<path id="Path_38" data-name="Path 38" d="M395.049,607.168a5.486,5.486,0,0,1,5.486-5.486" transform="translate(-50.325 -82.096)" fill="none" stroke="#fff" stroke-miterlimit="10" stroke-width="1" />
			<line id="Line_8" data-name="Line 8" x2="519.444" transform="translate(0 465.914)" fill="none" stroke="#fff" stroke-miterlimit="10" stroke-width="1" stroke-dasharray="12" />
			<line id="Line_9" data-name="Line 9" y2="454.825" transform="translate(257.862 238.501)" fill="none" stroke="#fff" stroke-miterlimit="10" stroke-width="1" stroke-dasharray="12" />
			<rect id="Rectangle_29" data-name="Rectangle 29" width="60.862" height="60.862" transform="translate(49.251 754.189) rotate(-90)" fill="none" stroke="#fff" stroke-miterlimit="10" stroke-width="1" />
			<line id="Line_10" data-name="Line 10" x2="519.444" transform="translate(0 754.197)" fill="none" stroke="#fff" stroke-miterlimit="10" stroke-width="1" stroke-dasharray="12" />
			<line id="Line_11" data-name="Line 11" y2="948.858" transform="translate(98.493)" fill="none" stroke="#fff" stroke-miterlimit="10" stroke-width="1" stroke-dasharray="12" />
			<line id="Line_12" data-name="Line 12" y2="948.858" transform="translate(417.227)" fill="none" stroke="#fff" stroke-miterlimit="10" stroke-width="1" stroke-dasharray="12" />
		</g>
	</g>
</svg>
