<?xml version="1.0" encoding="utf-8"?>
<!-- Generator: Adobe Illustrator 16.0.0, SVG Export Plug-In . SVG Version: 6.00 Build 0)  -->
<svg version="1.1" xmlns="http://www.w3.org/2000/svg" xmlns:xlink="http://www.w3.org/1999/xlink" x="0px" y="0px"
	 viewBox="0 0 384.492 564.014" enable-background="new 0 0 384.492 564.014" xml:space="preserve">

<g id="Layer_1">
	<g>
		<path fill="#F2B62F" d="M85.666,282.007c0.202-54.324,11.434-111.018,33.712-161.721l0.585,1.312
			c25.33,49.84,37.463,105.495,37.463,160.092l0.003,0.317c0.012-3.321,0.071-6.644,0.165-9.964
			c0.033-1.119,0.092-2.236,0.133-3.354c0.081-2.203,0.163-4.406,0.281-6.607c0.072-1.336,0.169-2.67,0.254-4.004
			c0.126-1.984,0.252-3.968,0.407-5.951c0.112-1.423,0.247-2.844,0.374-4.265c0.169-1.895,0.34-3.79,0.537-5.682
			c0.151-1.46,0.322-2.919,0.49-4.378c0.212-1.853,0.431-3.706,0.67-5.558c0.191-1.478,0.396-2.953,0.603-4.429
			c0.257-1.831,0.524-3.661,0.807-5.49c0.229-1.481,0.467-2.961,0.712-4.44c0.303-1.824,0.621-3.646,0.949-5.468
			c0.266-1.471,0.536-2.943,0.817-4.411c0.352-1.831,0.722-3.657,1.1-5.484c0.3-1.449,0.597-2.898,0.914-4.346
			c0.405-1.858,0.835-3.712,1.267-5.566c0.328-1.405,0.648-2.81,0.992-4.211c0.469-1.92,0.968-3.834,1.467-5.748
			c0.346-1.328,0.68-2.659,1.04-3.985c0.561-2.068,1.158-4.129,1.753-6.19c0.335-1.161,0.653-2.325,0.999-3.483
			c0.809-2.71,1.659-5.411,2.527-8.108c0.162-0.501,0.308-1.005,0.472-1.506c1.041-3.188,2.125-6.366,3.248-9.534
			c0.354-1,0.735-1.993,1.099-2.991c0.789-2.168,1.578-4.338,2.406-6.495c0.473-1.234,0.973-2.461,1.458-3.692
			c0.754-1.911,1.507-3.824,2.293-5.726c0.543-1.316,1.11-2.625,1.667-3.936c0.768-1.806,1.539-3.611,2.334-5.408
			c0.195-0.442,0.376-0.889,0.574-1.33l0.004,0C172.747,76.675,145.08,35.812,109.268,0C67.799,17.528,29.732,42.769,0,75.687
			c74.444,74.444,100.216,178.985,77.317,274.269c5.452-22.687,8.146-45.898,8.079-69.104L85.666,282.007z"/>
		<path d="M192.259,120.286c-0.003-0.007-0.005-0.013-0.008-0.02l-0.007,0.001c0.004,0.009,0.008,0.017,0.012,0.026
			C192.257,120.291,192.258,120.289,192.259,120.286z"/>
	</g>
</g>
<g id="Layer_3">
	<path fill="#B5B5B7" d="M384.492,75.687C354.76,42.769,316.692,17.528,275.225,0c-35.815,35.816-63.467,76.689-82.965,120.286
		c0.163,0.364,0.319,0.729,0.48,1.093c0.427,0.962,0.851,1.925,1.27,2.89c0.264,0.608,0.525,1.217,0.786,1.826
		c0.41,0.958,0.816,1.917,1.219,2.877c0.257,0.613,0.513,1.228,0.767,1.842c0.399,0.965,0.793,1.932,1.184,2.9
		c0.246,0.607,0.491,1.214,0.733,1.822c0.393,0.986,0.779,1.975,1.164,2.964c0.23,0.591,0.462,1.183,0.689,1.775
		c0.394,1.026,0.779,2.055,1.165,3.084c0.207,0.554,0.417,1.108,0.622,1.663c0.413,1.118,0.816,2.239,1.219,3.36
		c0.168,0.467,0.339,0.933,0.505,1.4c0.495,1.394,0.979,2.791,1.458,4.189c0.066,0.194,0.136,0.389,0.202,0.583
		c0.555,1.627,1.098,3.257,1.631,4.891c0.039,0.121,0.076,0.241,0.115,0.362c0.481,1.48,0.955,2.963,1.418,4.447
		c0.142,0.454,0.278,0.909,0.418,1.362c0.355,1.151,0.708,2.302,1.053,3.456c0.169,0.567,0.333,1.135,0.499,1.703
		c0.307,1.044,0.612,2.089,0.911,3.136c0.175,0.616,0.346,1.233,0.519,1.851c0.279,1,0.558,2.001,0.829,3.004
		c0.176,0.646,0.347,1.292,0.519,1.939c0.26,0.978,0.518,1.956,0.77,2.935c0.17,0.66,0.337,1.319,0.504,1.979
		c0.245,0.972,0.487,1.945,0.725,2.918c0.162,0.664,0.323,1.328,0.481,1.993c0.233,0.974,0.461,1.949,0.687,2.925
		c0.152,0.662,0.306,1.324,0.455,1.987c0.223,0.988,0.439,1.978,0.655,2.967c0.141,0.649,0.283,1.297,0.421,1.947
		c0.217,1.021,0.427,2.044,0.636,3.067c0.126,0.616,0.254,1.231,0.377,1.848c0.218,1.091,0.427,2.183,0.635,3.275
		c0.104,0.55,0.213,1.1,0.316,1.651c0.236,1.272,0.464,2.546,0.688,3.82c0.065,0.371,0.135,0.74,0.198,1.11
		c0.289,1.666,0.568,3.333,0.836,5.002c0.007,0.044,0.013,0.089,0.021,0.133c0.256,1.6,0.501,3.2,0.737,4.802
		c0.076,0.511,0.145,1.022,0.219,1.534c0.163,1.138,0.326,2.276,0.479,3.416c0.084,0.626,0.162,1.252,0.244,1.878
		c0.133,1.025,0.266,2.05,0.391,3.075c0.083,0.678,0.161,1.356,0.24,2.035c0.114,0.976,0.228,1.952,0.334,2.928
		c0.077,0.708,0.15,1.415,0.225,2.123c0.099,0.949,0.195,1.898,0.287,2.849c0.07,0.725,0.138,1.451,0.204,2.177
		c0.085,0.93,0.167,1.859,0.245,2.79c0.062,0.741,0.123,1.482,0.182,2.223c0.072,0.922,0.142,1.844,0.207,2.766
		c0.054,0.744,0.106,1.488,0.155,2.233c0.062,0.92,0.117,1.84,0.172,2.76c0.044,0.746,0.089,1.491,0.129,2.237
		c0.049,0.925,0.093,1.85,0.136,2.774c0.034,0.741,0.07,1.482,0.101,2.223c0.039,0.932,0.069,1.865,0.102,2.797
		c0.024,0.733,0.053,1.467,0.074,2.201c0.027,0.965,0.046,1.929,0.066,2.894c0.015,0.699,0.034,1.399,0.045,2.098
		c0.02,1.169,0.027,2.339,0.036,3.508c0.004,0.474,0.013,0.948,0.015,1.422c0.002,0.403-0.004,0.807-0.004,1.211
		c0.001,1.253,0,2.506-0.011,3.76c-0.006,0.685-0.02,1.37-0.029,2.055c-0.014,0.997-0.026,1.994-0.048,2.991
		c-0.015,0.712-0.036,1.423-0.056,2.134c-0.026,0.979-0.053,1.957-0.086,2.936c-0.023,0.699-0.053,1.398-0.08,2.098
		c-0.039,0.999-0.08,1.998-0.127,2.997c-0.031,0.671-0.066,1.343-0.101,2.014c-0.055,1.042-0.112,2.083-0.174,3.124
		c-0.037,0.62-0.076,1.24-0.116,1.86c-0.072,1.124-0.15,2.247-0.232,3.369c-0.039,0.533-0.077,1.067-0.118,1.601
		c-0.097,1.254-0.201,2.508-0.31,3.762c-0.035,0.404-0.068,0.81-0.104,1.214c-0.134,1.493-0.276,2.987-0.428,4.479
		c-0.016,0.161-0.031,0.323-0.048,0.484c-4.275,41.835-15.183,83.108-32.749,122.146v0.001
		c19.195,42.656,46.339,82.643,81.468,117.771c41.457-17.262,78.299-43.388,108.154-76.011l1.355-1.593
		C270.631,372.449,271.054,189.125,384.492,75.687z M331.146,31.296l-1.646,1.973L331.146,31.296z"/>
</g>
<g id="Layer_2">
	<path fill="#252839" d="M224.991,324.095c0.017-0.161,0.032-0.323,0.048-0.484c0.151-1.492,0.294-2.986,0.428-4.479
		c0.036-0.404,0.07-0.81,0.104-1.214c0.109-1.254,0.213-2.508,0.31-3.762c0.041-0.533,0.08-1.067,0.118-1.601
		c0.082-1.122,0.16-2.245,0.232-3.369c0.04-0.62,0.079-1.24,0.116-1.86c0.062-1.041,0.119-2.082,0.174-3.124
		c0.034-0.671,0.069-1.343,0.101-2.014c0.047-0.999,0.088-1.998,0.127-2.997c0.027-0.699,0.057-1.398,0.08-2.098
		c0.033-0.979,0.06-1.957,0.086-2.936c0.019-0.711,0.041-1.422,0.056-2.134c0.021-0.997,0.034-1.994,0.048-2.991
		c0.01-0.685,0.023-1.37,0.029-2.055c0.012-1.254,0.012-2.507,0.011-3.76c0-0.878-0.004-1.756-0.011-2.633
		c-0.009-1.169-0.017-2.339-0.036-3.508c-0.011-0.699-0.03-1.399-0.045-2.098c-0.021-0.965-0.039-1.929-0.066-2.894
		c-0.021-0.733-0.05-1.467-0.074-2.201c-0.032-0.932-0.062-1.865-0.102-2.797c-0.03-0.741-0.066-1.482-0.101-2.223
		c-0.043-0.925-0.087-1.85-0.136-2.774c-0.04-0.746-0.085-1.492-0.129-2.237c-0.055-0.92-0.11-1.84-0.172-2.76
		c-0.049-0.745-0.102-1.489-0.155-2.233c-0.065-0.922-0.135-1.844-0.207-2.766c-0.059-0.741-0.119-1.482-0.182-2.223
		c-0.078-0.93-0.16-1.86-0.245-2.79c-0.066-0.726-0.134-1.452-0.204-2.177c-0.092-0.95-0.188-1.899-0.287-2.849
		c-0.074-0.708-0.147-1.416-0.225-2.123c-0.106-0.976-0.22-1.952-0.334-2.928c-0.079-0.678-0.157-1.357-0.24-2.035
		c-0.125-1.025-0.258-2.05-0.391-3.075c-0.082-0.626-0.16-1.252-0.244-1.878c-0.153-1.139-0.316-2.277-0.479-3.416
		c-0.074-0.511-0.143-1.023-0.219-1.534c-0.236-1.602-0.481-3.203-0.737-4.802c-0.008-0.044-0.014-0.089-0.021-0.133
		c-0.268-1.669-0.547-3.336-0.836-5.002c-0.063-0.37-0.133-0.74-0.198-1.11c-0.225-1.274-0.452-2.547-0.688-3.82
		c-0.104-0.551-0.212-1.101-0.316-1.651c-0.208-1.092-0.417-2.185-0.635-3.275c-0.123-0.617-0.251-1.232-0.377-1.848
		c-0.209-1.023-0.419-2.046-0.636-3.067c-0.138-0.649-0.28-1.298-0.421-1.947c-0.216-0.99-0.433-1.979-0.655-2.967
		c-0.149-0.663-0.303-1.325-0.455-1.987c-0.226-0.976-0.453-1.951-0.687-2.925c-0.158-0.665-0.319-1.329-0.481-1.993
		c-0.237-0.974-0.479-1.946-0.725-2.918c-0.166-0.66-0.334-1.32-0.504-1.979c-0.252-0.979-0.51-1.958-0.77-2.935
		c-0.172-0.646-0.343-1.293-0.519-1.939c-0.271-1.002-0.55-2.003-0.829-3.004c-0.173-0.617-0.344-1.234-0.519-1.851
		c-0.299-1.046-0.604-2.091-0.911-3.136c-0.166-0.568-0.33-1.136-0.499-1.703c-0.345-1.153-0.697-2.305-1.053-3.456
		c-0.14-0.454-0.276-0.909-0.418-1.362c-0.463-1.484-0.937-2.967-1.418-4.447c-0.039-0.121-0.076-0.241-0.115-0.362
		c-0.533-1.633-1.076-3.263-1.631-4.891c-0.066-0.195-0.136-0.389-0.202-0.583c-0.479-1.398-0.963-2.795-1.458-4.189
		c-0.166-0.468-0.337-0.934-0.505-1.4c-0.402-1.121-0.806-2.242-1.219-3.36c-0.205-0.555-0.415-1.109-0.622-1.663
		c-0.386-1.029-0.771-2.058-1.165-3.084c-0.228-0.592-0.459-1.184-0.689-1.775c-0.385-0.989-0.771-1.978-1.164-2.964
		c-0.242-0.608-0.487-1.215-0.733-1.822c-0.391-0.967-0.784-1.935-1.184-2.9c-0.254-0.614-0.51-1.229-0.767-1.842
		c-0.402-0.96-0.809-1.919-1.219-2.877c-0.261-0.609-0.522-1.218-0.786-1.826c-0.419-0.964-0.843-1.928-1.27-2.89
		c-0.161-0.362-0.322-0.724-0.484-1.086c-0.195,0.436-0.397,0.869-0.59,1.305c-0.795,1.797-1.566,3.602-2.334,5.408
		c-0.558,1.311-1.125,2.62-1.667,3.936c-0.786,1.902-1.539,3.814-2.293,5.726c-0.486,1.231-0.986,2.458-1.458,3.692
		c-0.828,2.158-1.617,4.327-2.406,6.495c-0.364,0.998-0.745,1.991-1.099,2.991c-1.123,3.168-2.208,6.345-3.248,9.534
		c-0.164,0.5-0.311,1.005-0.472,1.506c-0.868,2.697-1.718,5.397-2.527,8.108c-0.346,1.158-0.664,2.322-0.999,3.483
		c-0.596,2.061-1.192,4.122-1.753,6.19c-0.36,1.326-0.694,2.657-1.04,3.985c-0.499,1.913-0.998,3.828-1.467,5.748
		c-0.343,1.401-0.664,2.807-0.992,4.211c-0.432,1.854-0.862,3.708-1.267,5.566c-0.316,1.447-0.614,2.897-0.914,4.346
		c-0.377,1.827-0.748,3.654-1.1,5.484c-0.282,1.468-0.552,2.94-0.817,4.411c-0.328,1.821-0.646,3.644-0.949,5.468
		c-0.245,1.479-0.483,2.959-0.712,4.44c-0.283,1.829-0.55,3.659-0.807,5.49c-0.207,1.476-0.412,2.952-0.603,4.429
		c-0.24,1.852-0.458,3.705-0.67,5.558c-0.168,1.459-0.338,2.918-0.49,4.378c-0.197,1.892-0.368,3.787-0.537,5.682
		c-0.127,1.421-0.262,2.842-0.374,4.265c-0.155,1.983-0.281,3.966-0.407,5.951c-0.085,1.334-0.183,2.668-0.254,4.004
		c-0.118,2.201-0.2,4.404-0.281,6.607c-0.041,1.118-0.101,2.235-0.133,3.354c-0.094,3.321-0.153,6.643-0.165,9.964l-0.003-0.317
		c0-54.597-12.133-110.252-37.463-160.092l-0.585-1.312C97.1,170.99,85.868,227.684,85.666,282.007l-0.27-1.155
		c0.066,23.205-2.627,46.417-8.079,69.104c-0.053,0.221-0.114,0.44-0.167,0.662c-0.591,2.435-1.218,4.861-1.873,7.282
		c-12.702,46.983-37.363,91.422-74.006,128.511l1.355,1.593c29.857,32.623,66.698,58.749,108.155,76.011
		c2.04-2.039,4.046-4.099,6.031-6.171c0.229-0.238,0.459-0.475,0.687-0.714c1.898-1.989,3.768-3.996,5.616-6.016
		c0.274-0.3,0.55-0.599,0.823-0.899c1.846-2.028,3.667-4.07,5.463-6.128c0.218-0.249,0.435-0.499,0.652-0.749
		c1.864-2.146,3.705-4.304,5.515-6.479c0.062-0.074,0.123-0.148,0.184-0.223c23.295-28.035,42.111-58.487,56.483-90.434
		C209.791,407.174,220.709,365.917,224.991,324.095z"/>
</g>
</svg>
