<?xml version="1.0" encoding="utf-8"?>
<!-- Generator: Adobe Illustrator 24.0.2, SVG Export Plug-In . SVG Version: 6.00 Build 0)  -->
<svg version="1.1" id="Layer_1" xmlns="http://www.w3.org/2000/svg" xmlns:xlink="http://www.w3.org/1999/xlink" x="0px" y="0px"
	 viewBox="0 0 242.795 348.586" style="enable-background:new 0 0 242.795 348.586;" xml:space="preserve">
<style type="text/css">
	.st0{fill:#FFFFFF;}
	.st1{opacity:0.1;}
</style>
<g id="Layer_1_1_">
</g>
<path class="st0" d="M189.92,173.621c0.13-45.213,17.833-87.746,49.851-119.763l3.024-3.024l-2.866-3.174
	c-17.332-19.19-40.521-35.262-67.06-46.479L170.079,0l-2.143,2.143c-19.197,19.197-34.813,41.001-46.539,64.586
	C109.673,43.144,94.057,21.34,74.86,2.143L72.717,0l-2.791,1.18C43.389,12.396,20.2,28.469,2.867,47.659L0,50.833l3.024,3.024
	c32.018,32.018,49.722,74.55,49.851,119.763c0.129,45.194-17.311,87.808-49.108,119.992l-2.901,2.938l2.675,3.144l0.919,1.075
	c18.395,20.1,41.354,36.234,66.396,46.661l2.781,1.157l2.13-2.131c18.8-18.8,34.123-40.125,45.661-63.205
	c11.625,23.305,26.93,44.535,45.6,63.205l2.131,2.131l2.781-1.157c25.043-10.427,48.002-26.562,66.395-46.661l3.596-4.218
	l-2.9-2.938C207.231,261.429,189.792,218.815,189.92,173.621z M12.421,50.598c15.486-16.2,35.484-29.917,58.216-39.924
	c19.259,19.747,34.654,42.26,45.826,66.607c-7.171,16.356-12.518,33.479-15.937,51.119c-3.819-18.699-10.053-36.449-18.669-53.083
	l-4.292-8.288l-3.811,8.52c-7.936,17.743-13.597,36.435-16.979,55.881C49.428,101.301,34.305,73.54,12.421,50.598z M171.261,337.934
	c-18.713-19.189-33.794-41.105-44.891-65.193c13.488-30.615,20.518-63.994,20.389-98.458c-0.126-33.894-7.168-66.758-20.428-97
	c11.172-24.347,26.566-46.861,45.827-66.607c22.731,10.007,42.729,23.725,58.216,39.924
	c-31.794,33.331-49.322,76.836-49.453,122.997c-0.132,46.165,17.146,89.774,48.745,123.276
	C213.202,314.263,193.114,328.386,171.261,337.934z"/>
<g id="Layer_4" class="st1">
</g>
</svg>
