<svg xmlns="http://www.w3.org/2000/svg" viewBox="0 0 100 100" style="enable-background:new 0 0 100 100" xml:space="preserve" width="1000"><linearGradient id="logo_svg__a" gradientUnits="userSpaceOnUse" x1="-2524.59" y1="-1911.591" x2="-2394.043" y2="-1986.959" gradientTransform="rotate(180 -160.514 -96.856) scale(.1421)"><stop offset="0" style="stop-color: rgb(102, 104, 171); --darkreader-inline-stopcolor: #738bb2;" data-darkreader-inline-stopcolor=""></stop><stop offset="0.1" style="stop-color: rgb(95, 119, 182); --darkreader-inline-stopcolor: #6c91bc;" data-darkreader-inline-stopcolor=""></stop><stop offset="0.34" style="stop-color: rgb(79, 150, 207); --darkreader-inline-stopcolor: #5ca0d2;" data-darkreader-inline-stopcolor=""></stop><stop offset="0.58" style="stop-color: rgb(67, 173, 225); --darkreader-inline-stopcolor: #4fb2e3;" data-darkreader-inline-stopcolor=""></stop><stop offset="0.8" style="stop-color: rgb(60, 186, 235); --darkreader-inline-stopcolor: #48beec;" data-darkreader-inline-stopcolor=""></stop><stop offset="1" style="stop-color: rgb(58, 191, 239); --darkreader-inline-stopcolor: #46c3f0;" data-darkreader-inline-stopcolor=""></stop></linearGradient><path d="M39.3 80.7c2.4 4.9.8 10.8-3.8 13.8-.1 0-.1.1-.2.1-1.8 1.1-3.9 1.6-6 1.5C23.5 95.9 19 91 19 85.2c0-2 .6-3.9 1.7-5.6.1-.1.1-.2.2-.3 1-1.4 1.9-2.8 2.9-4.2 2.1-2.9 4.3-5.8 6.7-8.6L39 80.2c.1.2.2.3.3.5z" style="fill:url(#logo_svg__a)"></path><linearGradient id="logo_svg__b" gradientUnits="userSpaceOnUse" x1="-2640.101" y1="-1900.316" x2="-2194.922" y2="-1455.147" gradientTransform="rotate(180 -160.514 -96.856) scale(.1421)"><stop offset="0" style="stop-color: rgb(58, 191, 239); --darkreader-inline-stopcolor: #46c3f0;" data-darkreader-inline-stopcolor=""></stop><stop offset="0.24" style="stop-color: rgb(61, 191, 235); --darkreader-inline-stopcolor: #49c3ec;" data-darkreader-inline-stopcolor=""></stop><stop offset="0.49" style="stop-color: rgb(69, 192, 222); --darkreader-inline-stopcolor: #51c4e0;" data-darkreader-inline-stopcolor=""></stop><stop offset="0.74" style="stop-color: rgb(84, 194, 202); --darkreader-inline-stopcolor: #60c6ce;" data-darkreader-inline-stopcolor=""></stop><stop offset="0.99" style="stop-color: rgb(103, 197, 173); --darkreader-inline-stopcolor: #70c8b2;" data-darkreader-inline-stopcolor=""></stop><stop offset="1" style="stop-color: rgb(104, 197, 172); --darkreader-inline-stopcolor: #70c8b1;" data-darkreader-inline-stopcolor=""></stop></linearGradient><path d="M7.3 6.2c4.9 1.8 9.8 3.9 14.5 6.2.8.4 1.7.8 2.5 1.3 2.2 1.1 4.3 2.3 6.4 3.5 9.4 5.5 16.1 18.5 16.9 30.1 0 0 .7 9.2 0 18s-2.9 15.1-3.2 15.9c-3.2 8.9-7.6 12.5-8.9 13.3 4.6-2.9 6.3-8.9 3.8-13.8-.1-.2-.2-.3-.3-.5l-8.6-13.6s-7.8-12.2-8.3-13C16.8 46 12.3 37.9 8.6 29.4c-1-2.4-2-4.7-2.9-7.2C4.3 18.7 3 15.1 2 11.3v-.2C1.2 8.7.6 6.3 0 3.8c2.5.8 4.9 1.6 7.3 2.4z" style="fill:url(#logo_svg__b)"></path><linearGradient id="logo_svg__c" gradientUnits="userSpaceOnUse" x1="2684.266" y1="-1911.571" x2="2814.828" y2="-1986.948" gradientTransform="matrix(.1421 0 0 -.1421 -318.973 -193.711)"><stop offset="0" style="stop-color: rgb(102, 104, 171); --darkreader-inline-stopcolor: #738bb2;" data-darkreader-inline-stopcolor=""></stop><stop offset="0.1" style="stop-color: rgb(95, 119, 182); --darkreader-inline-stopcolor: #6c91bc;" data-darkreader-inline-stopcolor=""></stop><stop offset="0.34" style="stop-color: rgb(79, 150, 207); --darkreader-inline-stopcolor: #5ca0d2;" data-darkreader-inline-stopcolor=""></stop><stop offset="0.58" style="stop-color: rgb(67, 173, 225); --darkreader-inline-stopcolor: #4fb2e3;" data-darkreader-inline-stopcolor=""></stop><stop offset="0.8" style="stop-color: rgb(60, 186, 235); --darkreader-inline-stopcolor: #48beec;" data-darkreader-inline-stopcolor=""></stop><stop offset="1" style="stop-color: rgb(58, 191, 239); --darkreader-inline-stopcolor: #46c3f0;" data-darkreader-inline-stopcolor=""></stop></linearGradient><path d="M60.7 80.7c-2.4 4.9-.8 10.8 3.8 13.8.1 0 .1.1.2.1 1.8 1.1 3.9 1.6 6 1.5C76.5 95.9 81 91 81 85.2c0-2-.6-3.9-1.7-5.6-.1-.1-.1-.2-.2-.3-1-1.4-1.9-2.8-2.9-4.2-2.1-2.9-4.3-5.8-6.7-8.6L61 80.2c-.1.2-.2.3-.3.5z" style="fill:url(#logo_svg__c)"></path><linearGradient id="logo_svg__d" gradientUnits="userSpaceOnUse" x1="2568.73" y1="-1900.296" x2="3013.914" y2="-1455.122" gradientTransform="matrix(.1421 0 0 -.1421 -318.973 -193.711)"><stop offset="0" style="stop-color: rgb(58, 191, 239); --darkreader-inline-stopcolor: #46c3f0;" data-darkreader-inline-stopcolor=""></stop><stop offset="0.24" style="stop-color: rgb(61, 191, 235); --darkreader-inline-stopcolor: #49c3ec;" data-darkreader-inline-stopcolor=""></stop><stop offset="0.49" style="stop-color: rgb(69, 192, 222); --darkreader-inline-stopcolor: #51c4e0;" data-darkreader-inline-stopcolor=""></stop><stop offset="0.74" style="stop-color: rgb(84, 194, 202); --darkreader-inline-stopcolor: #60c6ce;" data-darkreader-inline-stopcolor=""></stop><stop offset="0.99" style="stop-color: rgb(103, 197, 173); --darkreader-inline-stopcolor: #70c8b2;" data-darkreader-inline-stopcolor=""></stop><stop offset="1" style="stop-color: rgb(104, 197, 172); --darkreader-inline-stopcolor: #70c8b1;" data-darkreader-inline-stopcolor=""></stop></linearGradient><path d="M92.7 6.2c-4.9 1.8-9.8 3.9-14.5 6.2-.8.4-1.7.8-2.5 1.3-2.2 1.1-4.3 2.3-6.4 3.5-9.4 5.5-16.1 18.5-16.9 30.1 0 0-.7 9.2 0 18s2.9 15.1 3.2 15.9c3.2 8.9 7.6 12.5 8.9 13.3-4.6-2.9-6.3-8.9-3.8-13.8.1-.2.2-.3.3-.5l8.6-13.6s7.8-12.2 8.3-13c5.3-7.6 9.8-15.7 13.5-24.2 1-2.4 2-4.7 2.9-7.2 1.4-3.6 2.6-7.2 3.7-11V11c.7-2.4 1.3-4.8 1.9-7.3-2.4.9-4.8 1.7-7.2 2.5z" style="fill:url(#logo_svg__d)"></path></svg>