<?xml version="1.0" encoding="utf-8"?>
<!-- Generator: Adobe Illustrator 24.0.2, SVG Export Plug-In . SVG Version: 6.00 Build 0)  -->
<svg version="1.1" id="Layer_1" xmlns="http://www.w3.org/2000/svg" xmlns:xlink="http://www.w3.org/1999/xlink" x="0px" y="0px"
	 viewBox="0 0 240 234" style="enable-background:new 0 0 240 234;" xml:space="preserve">
<style type="text/css">
	.st0{fill:#470137;}
	.st1{fill:#FF61F6;}
</style>
<g id="Layer_2_1_">
	<g id="Surfaces">
		<g id="UI_UX_Surface">
			<g id="Outline_no_shadow">
				<g id="Group_175492">
					<path id="Path_104683" class="st0" d="M51.92,0H189.08c28.621,0,51.822,23.202,51.822,51.822v131.135
						c0,28.621-23.202,51.822-51.822,51.822H51.92c-28.621,0-51.822-23.202-51.822-51.822c0,0,0,0,0,0V51.822
						C0.098,23.202,23.3,0,51.92,0z"/>
				</g>
			</g>
		</g>
	</g>
	<g id="Outlined_Mnemonics_Logos" transform="translate(6.57 9.632)">
		<g id="Xd">
			<g id="Group_175493" transform="translate(0 1.632)">
				<path id="Path_104674" class="st1" d="M120.112,50.483l-30.047,49.592l32.149,52.665c0.206,0.368,0.264,0.802,0.16,1.211
					c-0.107,0.379-0.48,0.139-1.131,0.245H98.299c-1.601,0-2.748-0.059-3.394-1.137c-2.156-4.201-4.31-8.376-6.462-12.523
					c-2.152-4.148-4.441-8.374-6.867-12.678c-2.426-4.308-4.824-8.671-7.193-13.089h-0.16c-2.156,4.308-4.39,8.616-6.702,12.924
					c-2.312,4.308-4.601,8.587-6.867,12.838c-2.262,4.269-4.574,8.497-6.937,12.683c-0.432,0.971-1.184,1.067-2.262,1.067H29.327
					c-0.427,0-0.672,0.171-0.726-0.261c-0.062-0.394,0.025-0.798,0.245-1.131l31.178-51.225L29.647,50.318
					c-0.326-0.432-0.379-0.779-0.16-1.067c0.242-0.28,0.602-0.428,0.971-0.4h22.774c0.497-0.03,0.995,0.052,1.457,0.24
					c0.385,0.221,0.715,0.525,0.966,0.891c1.939,4.308,4.094,8.616,6.467,12.924c2.373,4.308,4.768,8.561,7.187,12.758
					c2.423,4.201,4.657,8.454,6.702,12.758h0.16c2.134-4.415,4.315-8.722,6.542-12.924c2.227-4.201,4.488-8.429,6.782-12.683
					c2.316-4.269,4.55-8.495,6.702-12.678c0.122-0.404,0.344-0.771,0.646-1.067c0.398-0.202,0.847-0.286,1.291-0.24h21.162
					c0.495-0.124,0.996,0.176,1.12,0.671c0,0.001,0,0.001,0,0.002c0.086,0.348-0.037,0.714-0.315,0.939L120.112,50.483z"/>
			</g>
			<g id="Group_175494" transform="translate(17.94)">
				<path id="Path_104675" class="st1" d="M148.535,157.921c-7.434,0.114-14.8-1.43-21.562-4.52
					c-6.302-2.916-11.57-7.678-15.106-13.655c-3.888-6.972-5.789-14.876-5.496-22.854c-0.061-7.415,1.835-14.714,5.496-21.162
					c3.773-6.57,9.321-11.944,16.008-15.506c7.816-4.074,16.546-6.078,25.356-5.821c0.534,0,1.238,0.032,2.102,0.08
					c0.864,0.048,1.884,0.133,3.068,0.245V42.9c0-0.752,0.32-1.131,0.971-1.131h20.351c0.47-0.067,0.904,0.26,0.971,0.73
					c0,0,0,0.001,0,0.001c0.013,0.08,0.013,0.161,0,0.24v95.491c0,1.836,0.082,3.828,0.245,5.976s0.299,4.086,0.406,5.811
					c0.034,0.682-0.351,1.316-0.971,1.601c-5.251,2.191-10.721,3.815-16.317,4.845C158.937,157.413,153.742,157.9,148.535,157.921z
					 M158.385,137.89V93.788c-0.874-0.238-1.766-0.4-2.668-0.486c-1.099-0.11-2.204-0.164-3.314-0.16
					c-3.92-0.037-7.793,0.849-11.307,2.588c-3.423,1.701-6.344,4.262-8.479,7.433c-2.371,3.819-3.526,8.268-3.314,12.758
					c-0.078,3.522,0.497,7.028,1.697,10.341c0.979,2.667,2.523,5.091,4.525,7.107c1.917,1.852,4.239,3.233,6.782,4.034
					c2.688,0.873,5.498,1.311,8.324,1.297c1.505,0,2.905-0.055,4.199-0.165C156.036,138.446,157.227,138.23,158.385,137.89
					L158.385,137.89z"/>
			</g>
		</g>
	</g>
</g>
</svg>
