<?xml version="1.0" encoding="utf-8"?>
<!-- Generator: Adobe Illustrator 24.0.2, SVG Export Plug-In . SVG Version: 6.00 Build 0)  -->
<svg version="1.1" id="Layer_1" xmlns="http://www.w3.org/2000/svg" xmlns:xlink="http://www.w3.org/1999/xlink" x="0px" y="0px"
	 viewBox="0 0 412.064 412.069" style="enable-background:new 0 0 412.064 412.069;" xml:space="preserve">
<style type="text/css">
	.st0{fill:#00749C;}
</style>
<g id="W_Mark_1_">
	<path class="st0" d="M206.032,12.362c26.151,0,51.513,5.119,75.381,15.215c11.473,4.853,22.54,10.86,32.893,17.854
		c10.258,6.93,19.904,14.889,28.671,23.657c8.767,8.767,16.726,18.414,23.656,28.671c6.994,10.353,13.001,21.42,17.854,32.893
		c10.096,23.869,15.214,49.231,15.214,75.382s-5.119,51.513-15.214,75.382c-4.853,11.473-10.86,22.54-17.854,32.893
		c-6.93,10.258-14.889,19.905-23.656,28.672c-8.767,8.767-18.413,16.726-28.671,23.657c-10.353,6.994-21.42,13.001-32.893,17.854
		c-23.869,10.096-49.231,15.215-75.381,15.215c-26.151,0-51.513-5.119-75.381-15.215c-11.473-4.853-22.54-10.86-32.893-17.854
		c-10.258-6.93-19.904-14.889-28.671-23.657c-8.767-8.767-16.726-18.414-23.656-28.672c-6.994-10.353-13.001-21.42-17.854-32.893
		c-10.096-23.869-15.214-49.231-15.214-75.382s5.119-51.513,15.214-75.382c4.853-11.473,10.86-22.54,17.854-32.893
		c6.93-10.258,14.889-19.904,23.656-28.671C77.854,60.32,87.5,52.361,97.758,45.431c10.353-6.994,21.42-13.001,32.893-17.854
		C154.519,17.481,179.881,12.362,206.032,12.362 M206.032,0C92.244,0,0,92.245,0,206.035c0,113.79,92.244,206.035,206.032,206.035
		c113.788,0,206.032-92.245,206.032-206.035C412.064,92.245,319.82,0,206.032,0L206.032,0z"/>
	<path class="st0" d="M34.339,206.028c0,67.957,39.49,126.691,96.769,154.519L49.205,136.155
		C39.679,157.506,34.339,181.136,34.339,206.028z M321.939,197.369c0-21.226-7.624-35.917-14.154-47.35
		c-8.704-14.149-16.865-26.12-16.865-40.269c0-15.78,11.967-30.472,28.832-30.472c0.762,0,1.483,0.092,2.223,0.139
		c-30.547-27.989-71.245-45.078-115.943-45.078c-59.986,0-112.754,30.779-143.455,77.385c4.031,0.128,7.83,0.208,11.05,0.208
		c17.955,0,45.76-2.183,45.76-2.183c9.251-0.542,10.344,13.056,1.098,14.149c0,0-9.304,1.09-19.649,1.632l62.52,185.977
		l37.579-112.686l-26.748-73.291c-9.251-0.542-18.008-1.632-18.008-1.632c-9.255-0.547-8.171-14.691,1.089-14.149
		c0,0,28.348,2.183,45.218,2.183c17.955,0,45.765-2.183,45.765-2.183c9.255-0.542,10.344,13.056,1.094,14.149
		c0,0-9.313,1.09-19.649,1.632l62.048,184.561l17.712-56.125C317.326,229.438,321.939,212.06,321.939,197.369z M209.048,221.046
		l-51.522,149.688c15.387,4.527,31.654,6.996,48.506,6.996c19.994,0,39.174-3.451,57.019-9.734
		c-0.459-0.735-0.883-1.514-1.232-2.366L209.048,221.046z M356.699,123.661c0.737,5.468,1.154,11.334,1.154,17.654
		c0,17.416-3.263,37.002-13.06,61.495l-52.439,151.619c51.044-29.759,85.371-85.06,85.371-148.401
		C377.725,176.177,370.097,148.114,356.699,123.661z"/>
</g>
</svg>
