<?xml version="1.0" encoding="utf-8"?>
<!-- Generator: Adobe Illustrator 24.0.2, SVG Export Plug-In . SVG Version: 6.00 Build 0) -->
<svg version="1.1" xmlns="http://www.w3.org/2000/svg" xmlns:xlink="http://www.w3.org/1999/xlink" x="0px" y="0px" viewBox="0 0 199.532 48.875" style="enable-background:new 0 0 199.532 48.875;" xml:space="preserve">
	<style type="text/css">
		.st0{fill:none;stroke:#FFFFFF;stroke-linecap:round;stroke-linejoin:round;stroke-miterlimit:10;}
	</style>
	<g id="_x2D_">
		<path class="st0" d="M116.209,28.63c3.306-2.727,6.611-6.438,9.627-10.962c0.858-1.466,3.815-6.389,4.408-7.888
		c0.754-1.45,0.928-2.088,0.29-2.436c-0.829-0.414-1.584,1.793-2.03,2.958c-2.001,5.405-8.268,21.063-3.073,22.33
		c2.577,0.649,4.889-0.872,7.334-3.277c2.109-3.447,6.9-7.683,9.153-6.62c-3.308-1.038-9.057,5.082-10.239,9.188
		c-0.574,2.65,1.624,4.336,3.993,2.041c2.682-2.267,6.233-6.967,8.768-8.889c0.928-0.842,0.128,2.329-0.005,3.169
		c-1.524,6.988,0.833,7.585,5.434,4.122c3.045-2.049,4.978-5.284,7.256-7.74c2.764-2.732,5.671-2.667,5.806-0.958
		c-0.74-2.942-4.891-0.208-6.47,1.675c-10.512,11.682,0.605,17.999,15.139,4.288c4.703-4.103,7.945-7.807,11.211-12.54
		c1.153-1.736,1.996-3.148,2.728-4.883c0.446-1.135,0.752-1.723,0.179-2.057c-0.634-0.414-1.218,0.735-1.737,1.764
		c-0.676,1.221-1.728,3.364-2.35,5.022c-2.351,5.262-4.556,11.686-5.72,16.35c-0.292,2.018,1.136,1.645,2.12,0.386
		c4.774-5.178,15.36-16.181,17.713-13.772c1.081,1.245-5.457,5.217-9.165,7.194c-1.262,0.511-1.708,1.845-0.863,3.501
		c2.624,5.285,9.034,2.787,13.318-0.967" />
	</g>
	<g id="lack">
		<path class="st0" d="M115.977,15.87c4.06-0.986,7.714-1.74,11.02-2.378l1.74-0.29c7.076-1.219,12.063-1.624,14.848-1.276
		c1.566,0.232,1.972,0.58,2.03,0.928" />
	</g>
	<g id="s">
		<path class="st0" d="M100.723,28.688c2.926-2.442,6.445-6.694,8.004-10.324c1.155-2.907-2.291-4.003-2.958-1.044
		c-0.614,6.43,6.282,16.578-4.524,16.181" />
	</g>
	<g id="full">
		<path class="st0" d="M77.581,28.63c-6.138,6.494-13.673,5.603-12.237-4.872c0.034-2.474,5.168-18.007,9.396-15.021
		c1.286,3.223-4.776,10.87-8.294,15.602C48.621,46.769,40.997,26.276,52.236,9.316c5.799-8.757,10.787-5.278,7.133,1.16
		c-3.344,6.243-18.396,23.76-25.23,21.228c-2.321-1.102-1.972-4.118-1.045-6.554c-7.298,7.949-17.893,13.106-11.89-1.856
		c1.218-3.364,2.436-6.669,1.45-8.177c-3.917-4.26-17.9,0.452-22.156,3.123v0.009c4.056-3.785,9.133,0.604,9.569,5.8
		c1.675,8.879-3.933,25.656-6.67,24.243C-0.39,43.597,19.457,9.268,22.54,0.5 M66.445,24.338" />
	</g>
</svg>
