<?xml version="1.0" encoding="utf-8"?>
<!-- Generator: Adobe Illustrator 24.0.2, SVG Export Plug-In . SVG Version: 6.00 Build 0)  -->
<svg version="1.1" xmlns="http://www.w3.org/2000/svg" xmlns:xlink="http://www.w3.org/1999/xlink" x="0px" y="0px"
	 viewBox="0 0 392.8 78" style="enable-background:new 0 0 392.8 78;" xml:space="preserve">
<style type="text/css">
	.st0{fill:none;stroke:#FFFFFF;stroke-linecap:round;stroke-miterlimit:10;}
</style>
<g id="Ome">
	<path class="st0" d="M392.3,49.1c-19.1,17.8-33.8,13.6-32.8-2.3c1.1-13.2,15.3-21.7,18.8-16.5c4.2,5.8-12.8,15.6-21.1,20.7
		c-33.3,23-10.7-10.1-17.5-12.8c-3.6-2-15.5,8.9-23.6,14.6c-1.7,1.2-2.9,1.7-3.1,0.5c1.7-20.9-12.9-5.3-25.2,3.7
		c-2,1.5-2.7,1.7-2.7,1.5c9.4-27.7,7.2-24.3-20.6-21.1c-10.2-0.2-8.6-8.5-2.9-2.9c7.3,9.8-7.5,32.2-18.1,27.5
		c-12.9-7.1,2.7-26.6,13.5-25.7"/>
</g>
<g id="Co">
	<path class="st0" d="M259.7,35.1c0.6,1.4-2.7,1.1-2.7,1.1c-6.1-0.2-12,4.4-15.4,9.8c-19.3,22.3-45.3,23.6-41,7.2l0,0
		c2-13,20.5-24.9,21.5-15.1"/>
</g>
<g id="Elc">
	<path class="st0" d="M115.6,53.8c10.5,3.7,34.2-9.2,31.2-18.8c-2-3.9-11.1-2-14.2,9.6c-0.9,2.8-0.6,5.3,0,8c8.4,21,45-14,52-24.8
		c1.7-2,14.4-24,7.1-17.1c-10.4,15.7-20.4,61.5,5.5,42.4c1-0.7,2-1.4,3.1-2.4c1.4-1.3,3.2-4.7,4-6c6.7-10.6,17-12.8,17.8-6.6
		 M134.2,50.6"/>
</g>
<g id="W">
	<path class="st0" d="M0.5,28.8c0-10.7,41.6-26.6,48.7-15.6c6.8,11.1-32.9,53.2-27,63c1.2,2,3.6,1.5,7.7-0.5
		c14.7-7.9,43.7-39.2,52.7-43.9c0.5-0.6,1.4,0.8,0.5,1V33c-4.2,6.3-22.8,40.8-5.9,37.9c20.8-5.6,54.8-53.1,57.9-70.4"/>
</g>
</svg>
