<?xml version="1.0" encoding="utf-8"?>
<!-- Generator: Adobe Illustrator 24.0.2, SVG Export Plug-In . SVG Version: 6.00 Build 0)  -->
<svg version="1.1" id="Layer_1" xmlns="http://www.w3.org/2000/svg" xmlns:xlink="http://www.w3.org/1999/xlink" x="0px" y="0px"
	 viewBox="0 0 100 50" style="enable-background:new 0 0 100 50;" xml:space="preserve">
<style type="text/css">
	.st0{fill:#FFFFFF;}
</style>
<path class="st0" d="M7.579,11.123h14.204c4.169,0.035,7.19,1.237,9.063,3.604c1.873,2.367,2.491,5.6,1.855,9.699
	c-0.247,1.873-0.795,3.71-1.643,5.512c-0.813,1.802-1.943,3.427-3.392,4.876c-1.767,1.837-3.657,3.003-5.671,3.498
	c-2.014,0.495-4.099,0.742-6.254,0.742h-6.36l-2.014,10.07H0L7.579,11.123L7.579,11.123 M13.78,17.165l-3.18,15.9
	c0.212,0.035,0.424,0.053,0.636,0.053c0.247,0,0.495,0,0.742,0c3.392,0.035,6.219-0.3,8.48-1.007
	c2.261-0.742,3.781-3.321,4.558-7.738c0.636-3.71,0-5.848-1.908-6.413c-1.873-0.565-4.222-0.83-7.049-0.795
	c-0.424,0.035-0.83,0.053-1.219,0.053c-0.353,0-0.724,0-1.113,0L13.78,17.165"/>
<path class="st0" d="M41.093,1h7.314L46.34,11.123h6.572c3.604,0.071,6.289,0.813,8.056,2.226c1.802,1.413,2.332,4.099,1.59,8.056
	l-3.551,17.649h-7.42L54.979,22.2c0.353-1.767,0.247-3.021-0.318-3.763c-0.565-0.742-1.784-1.113-3.657-1.113l-5.883-0.053
	l-4.346,21.783h-7.314L41.093,1L41.093,1"/>
<path class="st0" d="M70.412,11.123h14.204c4.169,0.035,7.19,1.237,9.063,3.604c1.873,2.367,2.491,5.6,1.855,9.699
	c-0.247,1.873-0.795,3.71-1.643,5.512c-0.813,1.802-1.943,3.427-3.392,4.876c-1.767,1.837-3.657,3.003-5.671,3.498
	c-2.014,0.495-4.099,0.742-6.254,0.742h-6.36L70.2,49.124h-7.367L70.412,11.123L70.412,11.123 M76.613,17.165l-3.18,15.9
	c0.212,0.035,0.424,0.053,0.636,0.053c0.247,0,0.495,0,0.742,0c3.392,0.035,6.219-0.3,8.48-1.007
	c2.261-0.742,3.781-3.321,4.558-7.738c0.636-3.71,0-5.848-1.908-6.413c-1.873-0.565-4.222-0.83-7.049-0.795
	c-0.424,0.035-0.83,0.053-1.219,0.053c-0.353,0-0.724,0-1.113,0L76.613,17.165"/>
</svg>
