<?xml version="1.0" encoding="utf-8"?>
<!-- Generator: Adobe Illustrator 24.0.2, SVG Export Plug-In . SVG Version: 6.00 Build 0)  -->
<svg version="1.1" xmlns="http://www.w3.org/2000/svg" xmlns:xlink="http://www.w3.org/1999/xlink" x="0px" y="0px"
	 viewBox="0 0 511.91 511.91" style="enable-background:new 0 0 511.91 511.91;" xml:space="preserve">
<style type="text/css">
	.st0{fill:none;stroke:#FFFFFF;stroke-width:18;stroke-linecap:round;stroke-miterlimit:10;}
	.st1{fill:none;stroke:#FFFFFF;stroke-width:18;stroke-miterlimit:10;}
	.st2{fill:none;stroke:#F9A11E;stroke-width:1.5;stroke-linecap:round;stroke-linejoin:round;stroke-miterlimit:10;}
	.st3{fill:none;stroke:#F9A11E;stroke-width:1.5;stroke-linecap:square;stroke-miterlimit:10;}
	.st4{fill:none;stroke:#F9A11E;stroke-width:1.5;stroke-linecap:square;stroke-miterlimit:10;stroke-dasharray:11.8,11.8;}
	.st5{fill:none;stroke:#F9A11E;stroke-width:1.5;stroke-miterlimit:10;}
	.st6{fill:none;stroke:#F9A11E;stroke-width:1.5;stroke-miterlimit:10;stroke-dasharray:12.1929,12.1929;}
</style>
<g id="Layer_4">
</g>
<g id="Layer_2">
	<path id="XMLID_18_" class="st0" d="M255.955,206.455l-131,0v131c0,72.349,58.651,131,131,131s131-58.651,131-131
		S328.304,206.455,255.955,206.455z"/>
	<path id="XMLID_17_" class="st0" d="M255.955,106.455h-131v100l130.998,0c0,0,0.002,0,0.002,0c27.614,0,50-22.386,50-50
		C305.955,128.841,283.569,106.455,255.955,106.455z"/>
	<polyline id="XMLID_1_" class="st1" points="468.455,468.455 255.955,255.955 43.455,468.455 	"/>
</g>
<g id="Layer_1">
	<circle id="XMLID_10_" class="st2" cx="255.955" cy="156.455" r="50"/>
	<circle id="XMLID_4_" class="st2" cx="255.955" cy="255.955" r="50"/>
	<circle id="XMLID_9_" class="st2" cx="255.955" cy="386.955" r="81.5"/>
	<circle id="XMLID_8_" class="st2" cx="255.955" cy="255.955" r="212.5"/>
	<circle id="XMLID_7_" class="st2" cx="255.955" cy="337.455" r="131"/>
	<g id="XMLID_2_">
		<g>
			<polyline class="st3" points="43.455,49.455 43.455,43.455 49.455,43.455 			"/>
			<line class="st4" x1="61.255" y1="43.455" x2="456.555" y2="43.455"/>
			<polyline class="st3" points="462.455,43.455 468.455,43.455 468.455,49.455 			"/>
			<line class="st4" x1="468.455" y1="61.255" x2="468.455" y2="456.555"/>
			<polyline class="st3" points="468.455,462.455 468.455,468.455 462.455,468.455 			"/>
			<line class="st4" x1="450.655" y1="468.455" x2="55.355" y2="468.455"/>
			<polyline class="st3" points="49.455,468.455 43.455,468.455 43.455,462.455 			"/>
			<line class="st4" x1="43.455" y1="450.655" x2="43.455" y2="55.355"/>
		</g>
	</g>
	<g>
		<g>
			<line class="st5" x1="0" y1="255.955" x2="6" y2="255.955"/>
			<line class="st6" x1="18.193" y1="255.955" x2="499.813" y2="255.955"/>
			<line class="st5" x1="505.91" y1="255.955" x2="511.91" y2="255.955"/>
		</g>
	</g>
	<g>
		<g>
			<line class="st5" x1="255.955" y1="0" x2="255.955" y2="6"/>
			<line class="st6" x1="255.955" y1="18.193" x2="255.955" y2="499.813"/>
			<line class="st5" x1="255.955" y1="505.91" x2="255.955" y2="511.91"/>
		</g>
	</g>
</g>
</svg>
