<?xml version="1.0" encoding="utf-8"?>
<!-- Generator: Adobe Illustrator 24.0.2, SVG Export Plug-In . SVG Version: 6.00 Build 0) -->
<svg version="1.1" id="Layer_1" xmlns="http://www.w3.org/2000/svg" xmlns:xlink="http://www.w3.org/1999/xlink" x="0px" y="0px" viewBox="0 0 192.5 185.3" width="1500px" xml:space="preserve">
	<style type="text/css">
		.st0{fill:#368F43;}
		.st1{fill:none;stroke:#000000;stroke-miterlimit:10;stroke-dasharray:11.8,11.8;}
		.st2{fill:none;}
		.st3{fill:#5BA845;}
		.st4{fill:#6CBE45;}
		.st5{fill:none;stroke:#FFFFFF;stroke-width:.2;stroke-miterlimit:10;stroke-dasharray:5,2;}
	</style>
	<g id="Layer_5">
		<g>
			<path class="st0" d="M80.9,135" />
			<path class="st0" d="M104.4,135" />
			<path class="st0" d="M80.9,135v-29.9h23.5V135" />
		</g>
	</g>
	<g id="dino2_copy">
		<g>
			<path class="st1" d="M135.1,127.8" />
		</g>
		<g>
			<path class="st2" d="M73.7,142.4c0,6.5-5.3,11.7-11.7,11.7s-11.7-5.3-11.7-11.7" />
		</g>
		<g>
			<path class="st1" d="M127.9,85.4" />
			<path class="st1" d="M142.4,54.7" />
		</g>
		<g>
			<path class="st1" d="M92.7,85.4" />
			<path class="st1" d="M142.4,135.1" />
			<path class="st1" d="M142.4,135.1" />
		</g>
		<g>
			<path class="st1" d="M135.1,123.8" />
			<path class="st1" d="M142.4,123.8" />
		</g>
		<path class="st1" d="M111.6,38.5" />
		<g>
			<path class="st1" d="M131.4,24.6" />
			<path class="st1" d="M93.4,24.6" />
			<path class="st1" d="M93.4,24.6" />
			<path class="st1" d="M112.4,43.6" />
		</g>
		<path class="st3" d="M46.1,127.9c-0.1,0-0.3,0-0.4,0c2.5,0,4.5,2,4.5,4.5v7.4h23.5v-4.7c0-10.5,8.5-19,19-19
		c9,0,16.5,6.3,18.5,14.6c0.3,1.4,0.5,2.8,0.5,4.3v4.7h23.5v-15.9c0-2,1.6-3.7,3.7-3.7s3.7,1.6,3.7,3.7v15.9h23.5v-24.6
		C151.8,102,132.7,94,111.8,94C84.6,94.1,60.7,107.4,46.1,127.9z" />
	</g>
	<g id="Layer_10">
		<path class="st4" d="M46.1,127.9c14.6-20.4,38.5-33.7,65.5-33.7c20.9,0,40,8,54.3,21.1V54.7c0-29.9-23.6-49-53.5-49.1
		C102,5.7,100,9.5,100,19.9c0,10.5,1.2,16,11.7,16s19.1-6.1,19-16.6c0.5,1.7,0.8,3.5,0.8,5.3c0,2-0.3,3.9-0.9,5.7
		c7.3,5.6,11.9,14.4,11.9,24.3c0,17-13.8,30.7-30.7,30.7H92.7c-15,0-28.4,6.6-37.5,17.1c-5.6,7-14.2,11.4-23.9,11.4
		c-14.6,0-26.8-10.1-29.9-23.8c-0.5,2.2-0.8,4.6-0.8,6.9c0,17,13.8,30.7,30.7,30.7h14.5C45.9,127.8,46,127.9,46.1,127.9z" />
	</g>
	<g id="Layer_1_1_">
		<g>
			<circle class="st5" cx="111.7" cy="54.7" r="54.2" />
			<circle class="st5" cx="111.7" cy="54.7" r="54.2" />
		</g>
		<g>
			<circle class="st5" cx="114" cy="59.8" r="54.2" />
			<circle class="st5" cx="114" cy="59.8" r="54.2" />
		</g>
		<g>
			<path class="st5" d="M31.2,174.5c0-44.404,35.996-80.4,80.4-80.4s80.4,35.996,80.4,80.4" />
			<path class="st5" d="M31.2,174.5c0-44.404,35.996-80.4,80.4-80.4s80.4,35.996,80.4,80.4" />
		</g>
		<g>
			<circle class="st5" cx="92.7" cy="135.1" r="49.7" />
			<circle class="st5" cx="92.7" cy="135.1" r="49.7" />
		</g>
		<g>
			<circle class="st5" cx="31.2" cy="97.1" r="30.7" />
			<circle class="st5" cx="31.2" cy="97.1" r="30.7" />
		</g>
		<g>
			<circle class="st5" cx="31.2" cy="83.2" r="30.7" />
			<circle class="st5" cx="31.2" cy="83.2" r="30.7" />
		</g>
		<g>
			<circle class="st5" cx="111.7" cy="54.7" r="30.7" />
			<circle class="st5" cx="111.7" cy="54.7" r="30.7" />
		</g>
		<g>
			<circle class="st5" cx="92.7" cy="135.1" r="19" />
			<circle class="st5" cx="92.7" cy="135.1" r="19" />
		</g>
		<g>
			<circle class="st5" cx="111.6" cy="19.5" r="19" />
			<circle class="st5" cx="111.6" cy="19.5" r="19" />
		</g>
		<g>
			<circle class="st5" cx="154.1" cy="135.1" r="19" />
			<circle class="st5" cx="154.1" cy="135.1" r="19" />
		</g>
		<g>
			<circle class="st5" cx="154.1" cy="127.8" r="11.7" />
			<circle class="st5" cx="154.1" cy="127.8" r="11.7" />
		</g>
		<g>
			<circle class="st5" cx="111.7" cy="12.2" r="11.7" />
			<circle class="st5" cx="111.7" cy="12.2" r="11.7" />
		</g>
		<g>
			<circle class="st5" cx="123.4" cy="127.8" r="11.7" />
			<circle class="st5" cx="123.4" cy="127.8" r="11.7" />
		</g>
		<g>
			<circle class="st5" cx="92.7" cy="135.1" r="11.7" />
			<circle class="st5" cx="92.7" cy="135.1" r="11.7" />
		</g>
		<g>
			<circle class="st5" cx="61.9" cy="127.8" r="11.7" />
			<circle class="st5" cx="61.9" cy="127.8" r="11.7" />
		</g>
		<circle class="st5" cx="45.7" cy="132.3" r="4.5" />
		<g>
			<circle class="st5" cx="112.4" cy="24.6" r="19" />
			<circle class="st5" cx="112.4" cy="24.6" r="19" />
		</g>
	</g>
</svg>
